<svg xmlns="http://www.w3.org/2000/svg" width="618.299" height="620.574" viewBox="0 0 618.299 620.574">
  <g id="Follow_Us_vector-_dark" data-name="Follow Us vector- dark" transform="translate(-1101.852 -5304.84)">
    <g id="Background_Complete" data-name="Background Complete" transform="translate(1130.352 5304.84)">
      <path id="Path_454" data-name="Path 454" d="M149.7,153.156h0A47.653,47.653,0,0,1,102.05,105.5h0A47.653,47.653,0,0,1,149.7,57.85h0A47.653,47.653,0,0,1,197.356,105.5h0A47.653,47.653,0,0,1,149.7,153.156Z" transform="translate(-26.857 -10.614)" fill="#2a2a2a"/>
      <rect id="Rectangle_112" data-name="Rectangle 112" width="9.862" height="31.866" transform="translate(101.231 84.276)" fill="#f1cc94"/>
      <path id="Path_455" data-name="Path 455" d="M125.918,84.787A5.884,5.884,0,1,0,120.09,78.9,5.884,5.884,0,0,0,125.918,84.787Z" transform="translate(-19.805 -4.684)" fill="#f1cc94"/>
      <path id="Path_456" data-name="Path 456" d="M141.862,99.887c0-4.479,2.059-7.149,6.009-7.149,3.616,0,5.369,2.559,5.369,7.149v16.691h9.806V96.438c0-8.54-4.826-12.657-11.586-12.657a11.127,11.127,0,0,0-9.6,5.258V84.754H132.39v31.852h9.472Z" transform="translate(-14.996 -0.478)" fill="#f1cc94"/>
      <path id="Path_457" data-name="Path 457" d="M187.408,23.89l6.523,11.92,11.934,6.537-11.934,6.523-6.523,11.92-6.523-11.92L168.95,42.348l11.934-6.537Z" transform="translate(-0.704 -23.89)" fill="#f5f5f5"/>
      <path id="Path_458" data-name="Path 458" d="M381.76,256.27l4.9,8.958,8.944,4.882-8.944,4.9-4.9,8.958-4.9-8.958-8.944-4.9,8.944-4.882Z" transform="translate(77.078 66.953)" fill="#ebebeb"/>
      <path id="Path_459" data-name="Path 459" d="M389.575,224.51l2.212,4.034,4.034,2.212-4.034,2.212L389.575,237l-2.2-4.034-4.048-2.212,4.048-2.212Z" transform="translate(83.102 54.537)" fill="#e0e0e0"/>
      <path id="Path_460" data-name="Path 460" d="M150.465,27.11l2.212,4.048,4.034,2.2-4.034,2.212L150.465,39.6l-2.2-4.034-4.048-2.212,4.048-2.2Z" transform="translate(-10.372 -22.631)" fill="#e0e0e0"/>
      <path id="Path_461" data-name="Path 461" d="M77.394,304.567A14.452,14.452,0,0,0,85.823,291.1c0-7.97-6.19-14.368-13.659-14.313S58.7,283.369,58.77,291.339a14.382,14.382,0,0,0,8.791,13.353C46.78,308.1,48,330.716,48,330.716l49.225-.417S98.077,307.418,77.394,304.567Z" transform="translate(-47.99 74.975)" fill="#f1cc94"/>
      <path id="Path_462" data-name="Path 462" d="M417.166,405.683a7.664,7.664,0,0,0-15.119.445,7.664,7.664,0,0,0-15.119-.362,10.335,10.335,0,0,0,1.864,7.469,30.362,30.362,0,0,0,5.4,5.7c2.782,2.462,5.3,4.757,8.053,7.2,2.782-2.476,5.049-4.8,7.775-7.275a30.029,30.029,0,0,0,5.355-5.758,10.362,10.362,0,0,0,1.794-7.427Z" transform="translate(84.471 122.938)" fill="#ebebeb"/>
      <path id="Path_463" data-name="Path 463" d="M431.69,201.587l5.272-1.043,8.346-18.332-2.086-10.529s8.053-2.114,9.834,11.865,2.114,10.265,2.114,10.265,17.317-3.366,19.056-2.156c1.266.89,5.146,18,7.177,27.29a10.279,10.279,0,0,1-5.133,11.586,7.219,7.219,0,0,1-1.822.612c-4.312.862-27.067,1.725-27.067,1.725l-9.111,1.808Z" transform="translate(102.007 33.841)" fill="#e0e0e0"/>
      <path id="Path_464" data-name="Path 464" d="M420.42,193.7l10.39,35.441,9.041-1.794L432.841,192Z" transform="translate(97.602 41.828)" fill="#e0e0e0"/>
    </g>
    <g id="Floor" transform="translate(1101.852 5924.037)">
      <path id="Path_465" data-name="Path 465" d="M643.638,469.422c0,.209-137.938.362-308.048.362S27.5,469.63,27.5,469.422s137.91-.362,308.09-.362S643.638,469.227,643.638,469.422Z" transform="translate(-27.5 -469.06)" fill="#f1cc94"/>
    </g>
    <path id="Path_539" data-name="Path 539" d="M416.263,213.322h0a56.527,56.527,0,0,1-75.541-26.108h0a56.527,56.527,0,0,1,26.108-75.541h0a56.513,56.513,0,0,1,75.541,26.108h0a56.513,56.513,0,0,1-26.108,75.541Z" transform="translate(1194.568 5313.035)" fill="#2a2a2a"/>
    <path id="Path_540" data-name="Path 540" d="M370.016,168.7a1.391,1.391,0,0,0,1.321-1.711c-.139-.682-.515-2.406-.654-3.116a1.89,1.89,0,0,0-1.391-1.7,11.128,11.128,0,0,1-5.564-5.689c-4.256-8.763-1.516-19.793,9-24.9,9.305-4.534,17.192-1.391,20.864,6.259,4.854,10,4.534,20.586-2.031,23.785a5.967,5.967,0,0,1-8.721-4.02c-1.085-4.9-1.391-10.613-2.921-13.784-1.391-2.782-4.062-4.465-7.205-2.935-3.714,1.808-4.826,7.094-2.323,12.226a14.857,14.857,0,0,0,3.769,4.952s4.034,17.915,4.729,21.059c1.391,6.245,5.87,12.518,6.3,13.228a.529.529,0,0,0,.932-.209c.125-.612,1.892-8.206.737-14.382-.32-1.753-2.2-10.724-2.2-10.724,2.323,1.711,6.829,2.031,10.571.209,11.127-5.425,13.77-19.264,7.149-32.868-4.993-10.279-18.374-15.62-31.6-9.18-16.482,8.012-19.042,23.854-14.257,33.7C359.417,164.876,364.216,169.132,370.016,168.7Z" transform="translate(1202.135 5319.462)" fill="#f1cc94"/>
    <path id="Path_541" data-name="Path 541" d="M441.046,318.951h0a38.946,38.946,0,0,1-22.491-50.324h0a38.946,38.946,0,0,1,50.31-22.505h0a38.946,38.946,0,0,1,22.491,50.324h0a38.946,38.946,0,0,1-50.31,22.505Z" transform="translate(1226.217 5366.82)" fill="#f1cc94"/>
    <path id="Path_542" data-name="Path 542" d="M472.115,284.139a20.989,20.989,0,0,0-39.043-15.3c-.125.278-.237.57-.348.848a20.613,20.613,0,0,0-1.029,11.127L424.17,289.9l12.184.7a20.989,20.989,0,0,0,35.58-5.925,5.048,5.048,0,0,0,.181-.529ZM446.077,293.5a17.525,17.525,0,0,1-8.026-6.176l-7.108-.4,4.381-5.285a17.345,17.345,0,0,1,.515-10.794c.209-.529.445-1.057.7-1.558a17.651,17.651,0,0,1,32.714,12.852c-.125.445-.264.876-.431,1.307A17.6,17.6,0,0,1,446.077,293.5Z" transform="translate(1229.418 5371.839)" fill="#101010" fill-rule="evenodd"/>
    <path id="Path_543" data-name="Path 543" d="M454.235,281.9c-.4-.417-2.309-2.476-2.7-2.782s-.668-.529-1.168-.167-1.85,1.071-2.239,1.28-.7.139-1.085-.278a14.035,14.035,0,0,1-2.963-3.853,15.3,15.3,0,0,1-1.391-4.312c-.083-.584.25-.751.584-.89s.7-.376,1.043-.556l.264-.167a4.9,4.9,0,0,0,.515-.459.9.9,0,0,0,.292-.849c0-.278-.1-3-.139-4.1s-.5-1.1-.779-1.21-.584-.278-.9-.389a1.906,1.906,0,0,0-1.516.1,5.786,5.786,0,0,0-3.2,3.352,6.486,6.486,0,0,0-.376,1.711,11.493,11.493,0,0,0,.459,3.964c.125.4,1.308,6.551,5.453,10.335s4.409,3.143,5.327,3.394a5.1,5.1,0,0,0,4.173-1.029,4.173,4.173,0,0,0,1.154-2.156A6.283,6.283,0,0,0,454.235,281.9Z" transform="translate(1235.004 5374.442)" fill="#101010" fill-rule="evenodd"/>
    <path id="Path_547" data-name="Path 547" d="M77.984,184.948h0A29.724,29.724,0,0,1,48.26,155.224h0A29.724,29.724,0,0,1,77.984,125.5h0a29.724,29.724,0,0,1,29.724,29.724h0a29.724,29.724,0,0,1-29.724,29.724Z" transform="translate(1082.467 5320.671)" fill="#f1cc94"/>
    <path id="Path_548" data-name="Path 548" d="M58.25,160.408A18.5,18.5,0,0,0,86.68,144a13.325,13.325,0,0,0,3.213-3.324,13.422,13.422,0,0,1-3.742,1.029,6.537,6.537,0,0,0,2.893-3.547,12.713,12.713,0,0,1-4.173,1.572,6.51,6.51,0,0,0-11.127,5.939,18.485,18.485,0,0,1-13.395-6.8,6.523,6.523,0,0,0,2.017,8.679,6.4,6.4,0,0,1-2.949-.807,6.509,6.509,0,0,0,5.216,6.454,6.5,6.5,0,0,1-2.935.111,6.51,6.51,0,0,0,6.064,4.507A13.061,13.061,0,0,1,58.25,160.408Z" transform="translate(1086.371 5325.404)" fill="#101010"/>
    <path id="Path_549" data-name="Path 549" d="M125.71,436h0a51.186,51.186,0,0,1-61.618-37.93h0A51.186,51.186,0,0,1,102.064,336.4h0a51.186,51.186,0,0,1,61.66,37.93h0A51.186,51.186,0,0,1,125.71,436Z" transform="translate(1088.109 5402.565)" fill="#2a2a2a"/>
    <path id="Path_555" data-name="Path 555" d="M102.67,357.924c7.288-1.739,8.165-1.919,11.127-2.476a15.55,15.55,0,0,1,5.286-.264,8.75,8.75,0,0,1,3.63,1.294,8.944,8.944,0,0,1,2.782,2.657,15.607,15.607,0,0,1,2.142,4.84c.821,2.851,1.057,3.714,2.782,11s1.906,8.165,2.462,11.127a15.189,15.189,0,0,1,.264,5.286,8.345,8.345,0,0,1-1.294,3.63,8.749,8.749,0,0,1-2.643,2.782,15.732,15.732,0,0,1-4.854,2.142c-2.782.821-3.7,1.057-10.988,2.782s-8.165,1.919-11.127,2.476a15.3,15.3,0,0,1-5.3.264,8.624,8.624,0,0,1-3.63-1.293,8.456,8.456,0,0,1-2.7-2.74,15.384,15.384,0,0,1-2.156-4.84c-.807-2.851-1.043-3.7-2.782-10.988s-1.919-8.165-2.476-11.127a16.023,16.023,0,0,1-.264-5.3,9.236,9.236,0,0,1,3.95-6.412,15.537,15.537,0,0,1,4.84-2.156c2.782-.807,3.714-1.043,11-2.782m-1.168-4.924c-7.414,1.766-8.346,2.017-11.225,2.851A20.334,20.334,0,0,0,84,358.536a14.41,14.41,0,0,0-6.078,9.876,20.656,20.656,0,0,0,.306,6.955c.57,2.935.751,3.881,2.518,11.294s2.017,8.346,2.782,11.211a20.181,20.181,0,0,0,2.782,6.329,13.784,13.784,0,0,0,4.381,4.187,13.63,13.63,0,0,0,5.564,1.989,20.57,20.57,0,0,0,6.955-.306c2.935-.556,3.881-.751,11.294-2.518s8.346-2.017,11.211-2.782a20.864,20.864,0,0,0,6.329-2.782,13.783,13.783,0,0,0,4.089-4.3,14.006,14.006,0,0,0,2-5.564,20.642,20.642,0,0,0-.32-6.955c-.556-2.949-.751-3.881-2.518-11.294s-2.017-8.346-2.782-11.225a21,21,0,0,0-2.782-6.329,13.742,13.742,0,0,0-4.3-4.075,13.534,13.534,0,0,0-5.564-2,20.573,20.573,0,0,0-6.955.306c-2.949.57-3.881.751-11.294,2.518" transform="translate(1094 5408.466)" fill="#f1cc94"/>
    <path id="Path_556" data-name="Path 556" d="M100.212,361.84a14.41,14.41,0,1,0,17.359,10.682,14.41,14.41,0,0,0-17.359-10.682m5.564,23.131a9.361,9.361,0,1,1,5.817-4.2,9.361,9.361,0,0,1-5.817,4.2" transform="translate(1098.447 5412.908)" fill="#f1cc94"/>
    <path id="Path_557" data-name="Path 557" d="M111.707,359.011a3.352,3.352,0,1,1-1.507-2.1,3.366,3.366,0,0,1,1.507,2.1" transform="translate(1104.672 5410.939)" fill="#f1cc94"/>
    <path id="Path_550" data-name="Path 550" d="M393.522,388.637h0a23.868,23.868,0,0,1-23.882-23.868h0A23.868,23.868,0,0,1,393.522,340.9h0a23.868,23.868,0,0,1,23.91,23.868h0a23.868,23.868,0,0,1-23.91,23.868Z" transform="translate(1208.102 5404.876)" fill="#2a2a2a"/>
    <path id="Path_554" data-name="Path 554" d="M385.046,376.53h5.814V362.023h4.048l.445-4.868H390.86v-2.782c0-1.141.236-1.6,1.391-1.6h3.157V347.71h-4.034c-4.326,0-6.273,1.906-6.273,5.564v3.895H382v4.854h3.018Z" transform="translate(1212.934 5407.538)" fill="#f1cc94"/>
    <g id="Device" transform="translate(1286.676 5361.074)">
      <path id="Path_479" data-name="Path 479" d="M393.9,628.66l-191.795-.069a41.728,41.728,0,0,1-41.728-41.728l.083-480.815A41.728,41.728,0,0,1,202.275,64.32l191.781.111a41.728,41.728,0,0,1,41.728,41.728l-.084,480.7a41.728,41.728,0,0,1-41.8,41.8Z" transform="translate(-160.38 -64.32)" fill="#f1cc94"/>
      <path id="Path_480" data-name="Path 480" d="M390.285,76.547H353.092a9.25,9.25,0,0,0-9.027,9.4V92.7a9.222,9.222,0,0,1-9.027,9.43H262.557a9.236,9.236,0,0,1-9.027-9.444V85.894A9.264,9.264,0,0,0,244.5,76.45H198.866a29.209,29.209,0,0,0-29.279,29.209l-.1,469.312A29.209,29.209,0,0,0,198.7,604.181l191.419.111a29.209,29.209,0,0,0,29.209-29.209l.1-469.326A29.209,29.209,0,0,0,390.285,76.547Z" transform="translate(-156.819 -59.578)" fill="#2a2a2a"/>
      <path id="Path_481" data-name="Path 481" d="M336.311,103.973c0,.125-4.84.264-10.794.306s-10.807,0-10.807-.125,4.827-.278,10.794-.32S336.311,103.848,336.311,103.973Z" transform="translate(-100.049 -48.878)" fill="#f1cc94"/>
      <path id="Path_482" data-name="Path 482" d="M336.341,107.945c0,.125-4.826.264-10.794.32s-10.807,0-10.807-.139,4.84-.264,10.807-.32S336.341,107.819,336.341,107.945Z" transform="translate(-100.037 -47.328)" fill="#f1cc94"/>
      <path id="Path_483" data-name="Path 483" d="M336.385,111.915c0,.125-4.84.278-10.807.32s-10.794,0-10.807-.139,4.84-.264,10.807-.32S336.385,111.789,336.385,111.915Z" transform="translate(-100.025 -45.776)" fill="#f1cc94"/>
      <path id="Path_484" data-name="Path 484" d="M184,122.054h2.142l5.814-.139-.167.153c0-1.28,0-2.684-.07-4.173v-2.42a2.239,2.239,0,0,1,1.947-1.794h2.782a2.267,2.267,0,0,1,1.906,2.239c0,1.975,0,4.02.07,6.148l-.264-.264h7.33l-.278.278c0-2.949,0-6.009-.083-9.138v-2.323A2.323,2.323,0,0,0,204.1,108.9l-3.2-3.171-3.1-3.046-1.488-1.474c-.515-.5-.918-1.015-1.516-1.141a1.989,1.989,0,0,0-1.683.32c-.445.376-.918.9-1.391,1.391l-2.643,2.657c-1.655,1.711-3.38,3.283-4.632,4.771a5.23,5.23,0,0,0-.362,2.782v9.4a7.714,7.714,0,0,1,0,.96,7.9,7.9,0,0,1,0-.876v-2.629c0-1.043,0-2.6-.1-4.173v-4.034a3.032,3.032,0,0,1,.4-1.53c1.391-1.655,2.977-3.13,4.646-4.9l2.615-2.684c.473-.459.848-.918,1.391-1.391a2.49,2.49,0,0,1,2.128-.431,4.075,4.075,0,0,1,1.766,1.266l1.5,1.474,3.1,3.046,3.213,3.143a6.412,6.412,0,0,1,.821.89,2.406,2.406,0,0,1,.389,1.238q0,1.168,0,2.337c0,3.13,0,6.19.07,9.138v.278h-8.123V116.1a1.766,1.766,0,0,0-1.474-1.78h-2.671a1.794,1.794,0,0,0-1.572,1.391v6.676h-7.622a3.184,3.184,0,0,1-.57-.334Z" transform="translate(-151.15 -50.519)" fill="#f1cc94"/>
      <path id="Path_485" data-name="Path 485" d="M289.378,379.512a11.63,11.63,0,0,1-2.017.139l-5.48.111c-4.618.07-11.016.111-18.082.111s-13.464,0-18.082-.111l-5.48-.111a11.825,11.825,0,0,1-2.017-.139,10.24,10.24,0,0,1,2.017-.139l5.48-.125c4.618,0,11.016-.1,18.082-.1s13.45,0,18.082.1l5.48.125A10.083,10.083,0,0,1,289.378,379.512Z" transform="translate(-129.95 58.755)" fill="#f1cc94"/>
      <path id="Path_486" data-name="Path 486" d="M369.736,388.552c0,.209-29.446.362-65.763.362s-65.763-.153-65.763-.362,29.446-.362,65.763-.362S369.736,388.357,369.736,388.552Z" transform="translate(-129.954 62.289)" fill="#f1cc94"/>
      <path id="Path_487" data-name="Path 487" d="M328.634,397.1c0,.209-20.238.362-45.205.362s-45.219-.153-45.219-.362,20.238-.362,45.219-.362S328.634,396.851,328.634,397.1Z" transform="translate(-129.954 65.631)" fill="#f1cc94"/>
      <path id="Path_488" data-name="Path 488" d="M336.884,416.892l-4.089-4.1-3.895,3.881V404.93h7.97Zm-4.089-4.618.125.125,3.6,3.616v-10.71h-7.247v10.5Z" transform="translate(-94.501 68.833)" fill="#263238"/>
      <path id="Path_489" data-name="Path 489" d="M258.331,414.627l-1.391-.64a3.686,3.686,0,1,1,1.113-.807Zm-3.352-7.817a3.742,3.742,0,0,0,.07,7.469,3.979,3.979,0,0,0,1.794-.57h0l1.071.473-.25-1.043h0a3.728,3.728,0,0,0-2.782-6.245Z" transform="translate(-124.76 69.568)" fill="#263238"/>
      <path id="Path_490" data-name="Path 490" d="M264.4,413.915l-1.641-4.034-3.1-2.782h7.511Zm-4.048-6.579,2.643,2.42,1.391,3.436,2.365-5.911Z" transform="translate(-121.569 69.681)" fill="#263238"/>
      <rect id="Rectangle_113" data-name="Rectangle 113" width="4.896" height="0.278" transform="translate(141.339 479.358) rotate(-33.05)" fill="#263238"/>
      <path id="Path_491" data-name="Path 491" d="M250.484,408.182a2.323,2.323,0,0,0-4.576.153,2.323,2.323,0,0,0-4.59-.084,3.158,3.158,0,0,0,.57,2.267,9.179,9.179,0,0,0,1.641,1.725c.848.737,1.613,1.391,2.448,2.17.835-.751,1.53-1.46,2.365-2.212a9.183,9.183,0,0,0,1.613-1.753A3.088,3.088,0,0,0,250.484,408.182Z" transform="translate(-128.75 69.378)" fill="#e8505b"/>
      <path id="Path_492" data-name="Path 492" d="M403.247,442.043v-5.119c0-3.352,0-8.346-.07-14.688,0-12.783-.07-31.379-.125-54.705l.236.237-222.423.125h0l.362-.362v74.512l-.348-.348,159.163.153,46.457.1h.209l-46.387.1-159.4.167h-.362V367.17h.389l222.423.125h.236v.236c0,23.381-.1,42.034-.125,54.858v18.388A2.687,2.687,0,0,1,403.247,442.043Z" transform="translate(-152.491 54.071)" fill="#f1cc94"/>
      <rect id="Rectangle_114" data-name="Rectangle 114" width="49.267" height="61.618" transform="matrix(0.006, -1, 1, 0.006, 37.3, 483.328)" fill="#464646"/>
      <path id="Path_493" data-name="Path 493" d="M249.242,376.839H232.051l-44.51-.1.334-.32c-.07,14.674-.153,31.477-.236,49.253.07.1-.682-.682-.362-.362h16.761l16,.1,28.848.209-.292.306c.139-14.8.264-27.067.362-35.691,0-4.284.1-7.65.125-10v45.984h-.306l-28.848-.111-16-.083H187.166l-.376-.376c.125-17.79.223-34.592.32-49.253v-.334h.334l44.649.4,12.518.167h4.131Z" transform="translate(-150.056 57.547)" fill="#263238"/>
      <rect id="Rectangle_115" data-name="Rectangle 115" width="43.063" height="57.292" transform="matrix(0.006, -1, 1, 0.006, 39.446, 480.239)" fill="#464646"/>
      <path id="Path_494" data-name="Path 494" d="M188.72,417.05l20.168-26.65,12.3,16.816,8.457-8.9,16.371,19.07Z" transform="translate(-149.301 63.153)" fill="#2a2a2a"/>
      <path id="Path_495" data-name="Path 495" d="M218.471,389.394a4.506,4.506,0,1,1-1.305-3.2,4.52,4.52,0,0,1,1.305,3.2Z" transform="translate(-141.205 60.987)" fill="#2a2a2a"/>
      <path id="Path_496" data-name="Path 496" d="M280.3,146.952a2,2,0,0,1-.668,0l-1.878.07-6.955.125c-5.856,0-13.909.1-22.895.1s-17.039,0-22.895-.1l-6.955-.125-1.892-.07a1.864,1.864,0,0,1-.654,0,2.42,2.42,0,0,1,.654-.07h1.892l6.955-.111c5.856-.07,13.909-.111,22.895-.111s17.039,0,22.895.111l6.955.111h1.878a2.6,2.6,0,0,1,.668.07Z" transform="translate(-138.828 -32.131)" fill="#263238"/>
      <path id="Path_497" data-name="Path 497" d="M330.865,347.642,324.8,341.55l-5.8,5.772V329.88h11.851ZM324.8,340.8l.181.181,5.355,5.369V330.436H319.542v15.606Z" transform="translate(-98.372 39.494)" fill="#263238"/>
      <path id="Path_498" data-name="Path 498" d="M220.581,345.65l-2.782-1.266a7.177,7.177,0,1,1,2.184-1.572Zm-6.635-15.37a7.344,7.344,0,1,0,.125,14.688,7.636,7.636,0,0,0,3.533-1.113l.125-.07,2.086.932-.473-2.059.1-.1a7.33,7.33,0,0,0-5.494-12.282Z" transform="translate(-142.286 39.65)" fill="#f1cc94"/>
      <path id="Path_499" data-name="Path 499" d="M232.417,344.287l-3.255-7.942-6.092-5.564,14.8-.111Zm-7.97-12.977,5.2,4.771,2.782,6.76,4.646-11.628Z" transform="translate(-135.873 39.803)" fill="#f1cc94"/>
      <rect id="Rectangle_116" data-name="Rectangle 116" width="9.625" height="0.542" transform="translate(93.632 375.696) rotate(-33.05)" fill="#263238"/>
      <path id="Path_500" data-name="Path 500" d="M205.019,333.037a4.576,4.576,0,0,0-9.027.292,4.576,4.576,0,0,0-9.027-.153,6.19,6.19,0,0,0,1.127,4.451,18.79,18.79,0,0,0,3.241,3.408c1.655,1.391,3.171,2.782,4.826,4.27,1.613-1.474,3-2.865,4.632-4.354a18.736,18.736,0,0,0,3.185-3.45A6.2,6.2,0,0,0,205.019,333.037Z" transform="translate(-150.008 39.285)" fill="#101010"/>
      <circle id="Ellipse_39" data-name="Ellipse 39" cx="10.042" cy="10.042" r="10.042" transform="translate(43.619 104.778)" fill="#464646"/>
      <path id="Path_501" data-name="Path 501" d="M377.651,301.352c0,.209-42.089.376-94,.376s-94.013-.167-94.013-.376,42.089-.362,94.013-.362S377.651,301.157,377.651,301.352Z" transform="translate(-148.942 28.2)" fill="#f1cc94"/>
      <path id="Path_502" data-name="Path 502" d="M377.651,290.1c0,.195-42.089.362-94,.362s-94.013-.167-94.013-.362,42.089-.362,94.013-.362S377.651,289.907,377.651,290.1Z" transform="translate(-148.942 23.802)" fill="#f1cc94"/>
      <path id="Path_503" data-name="Path 503" d="M291.97,312.762c0,.195-22.909.362-51.158.362s-51.172-.167-51.172-.362,22.908-.362,51.172-.362S291.97,312.567,291.97,312.762Z" transform="translate(-148.942 32.661)" fill="#f1cc94"/>
      <path id="Path_504" data-name="Path 504" d="M256.392,436.435a4.02,4.02,0,1,1-1.143-2.864A4.006,4.006,0,0,1,256.392,436.435Z" transform="translate(-125.979 79.556)" fill="#263238"/>
      <path id="Path_505" data-name="Path 505" d="M265.244,436.475a4.006,4.006,0,1,1-1.139-2.868,3.992,3.992,0,0,1,1.139,2.868Z" transform="translate(-122.507 79.571)" fill="#263238"/>
      <path id="Path_506" data-name="Path 506" d="M274.174,436.515a4.02,4.02,0,1,1-1.143-2.864A3.992,3.992,0,0,1,274.174,436.515Z" transform="translate(-119.016 79.587)" fill="#263238"/>
      <rect id="Rectangle_117" data-name="Rectangle 117" width="222.45" height="136.032" transform="translate(29.641 134.683)" fill="#464646"/>
      <path id="Path_507" data-name="Path 507" d="M196.46,282.959l63.732-85.319L299.722,251,326.5,222.454l52.535,60.45Z" transform="translate(-146.275 -12.202)" fill="#2a2a2a"/>
      <path id="Path_508" data-name="Path 508" d="M290.824,194.148a14.382,14.382,0,1,1-14.382-14.368,14.382,14.382,0,0,1,14.382,14.368Z" transform="translate(-120.631 -19.184)" fill="#2a2a2a"/>
      <path id="Path_509" data-name="Path 509" d="M403.789,436.447c0-2.907-.139-125.8-.334-307.728l.334.334H181.366l.362-.362V436.42l-.306-.292,222.451.292-222.45.306h-.292v-.306c0-86.14,0-192.643-.07-307.728v-.362H404.206v.32c-.07,91.064-.125,168.024-.167,222.242,0,27.067-.07,48.446-.083,63.078v20.975A5.481,5.481,0,0,1,403.789,436.447Z" transform="translate(-152.296 -39.297)" fill="#f1cc94"/>
    </g>
    <g id="Megaphone" transform="translate(1195.791 5442.781)">
      <path id="Path_510" data-name="Path 510" d="M291.312,398.53l4.924-16.538c.862-3.589,2-7.817,3.533-12.643,1.391-4.34,4.924-8.9,8.151-12.184,5.021-5.1,7.414-5.133,10.78-7.845.306-.195.654-.487.946-.64a5.3,5.3,0,0,0,1.641-1.391c2.907-3.143.111-8.026-5.8-7.553-4.437.348-11.7,1.613-23.493,13.784-.153.195-.306.348-.445.529-6.19,8.053-12-14.925-13.061-23.479a8.944,8.944,0,0,0-12.115-6.955l-28.737,13.436a13.449,13.449,0,0,0-8.346.278,8.568,8.568,0,0,0-5.48,10.14l11.67,46.471L201.25,507.857h73.789Z" transform="translate(-53.517 -44.905)" fill="#ffbe9d"/>
      <path id="Path_511" data-name="Path 511" d="M343.191,306.583l-22.811,44.7-11.406-3.171-57.306,46.638a11.6,11.6,0,0,1-16.121-1.391L213.71,368.007s44.023-18.958,52.16-34.648-1.266-19.264-1.266-19.264l20.711-23.534Z" transform="translate(-48.647 -57.584)" fill="#f1cc94"/>
      <path id="Path_512" data-name="Path 512" d="M360,280.762s-33.382-7.386-80.382-52.563-69.059-105.223-74.748-104.89S174,111.945,126.239,215.833,97.294,343.8,106.766,343.659s74.025-18.179,114.334-13.6,92.121,25.593,92.121,25.593Z" transform="translate(-95.038 -123.063)" fill="#f1cc94"/>
      <path id="Path_513" data-name="Path 513" d="M371.625,298.557l-11.392,21.657-5.1,9.736a28.264,28.264,0,0,1-36.846,12.518L246.72,317.529l41.728-95.139,71.493,38.1a28.264,28.264,0,0,1,11.684,38.07Z" transform="translate(-35.742 -84.234)" fill="#f1cc94"/>
      <g id="Group_63" data-name="Group 63" transform="translate(210.978 138.156)" opacity="0.4">
        <path id="Path_514" data-name="Path 514" d="M371.625,298.557l-11.392,21.657-5.1,9.736a28.264,28.264,0,0,1-36.846,12.518L246.72,317.529l41.728-95.139,71.493,38.1a28.264,28.264,0,0,1,11.684,38.07Z" transform="translate(-246.72 -222.39)"/>
      </g>
      <path id="Path_515" data-name="Path 515" d="M128.306,217.064c-25.412,56.277-36,106.434-23.646,112.011s42.993-35.51,68.406-91.8,36-106.42,23.646-112.011S153.718,160.787,128.306,217.064Z" transform="translate(-93.294 -122.402)" fill="#a77933"/>
      <g id="Group_64" data-name="Group 64" transform="translate(6.207 2.352)" opacity="0.5">
        <path id="Path_516" data-name="Path 516" d="M128.306,217.064c-25.412,56.277-36,106.434-23.646,112.011s42.993-35.51,68.406-91.8,36-106.42,23.646-112.011S153.718,160.787,128.306,217.064Z" transform="translate(-99.501 -124.754)" fill="#dcb06d"/>
      </g>
      <path id="Path_517" data-name="Path 517" d="M346.393,307.773l-19.4-6.092,12-22.811,14.549,9.041Z" transform="translate(-4.363 -62.154)" fill="#f1cc94"/>
      <g id="Group_65" data-name="Group 65" transform="translate(322.627 216.716)" opacity="0.6">
        <path id="Path_518" data-name="Path 518" d="M338.994,278.87l-12,22.811,3.992,1.252,9.75-22.992Z" transform="translate(-326.99 -278.87)"/>
      </g>
      <path id="Path_519" data-name="Path 519" d="M337.866,288.017c-.278.626-9.959-3.13-21.615-8.346s-20.864-10.056-20.6-10.682,9.959,3.143,21.629,8.415S338.158,287.391,337.866,288.017Z" transform="translate(-16.616 -66.043)" fill="#f1cc94"/>
      <path id="Path_520" data-name="Path 520" d="M340.99,278.165c-.306.612-9.069-3.074-19.57-8.248s-18.764-9.862-18.458-10.488,9.055,3.074,19.556,8.248S341.3,277.539,340.99,278.165Z" transform="translate(-13.759 -69.781)" fill="#f1cc94"/>
      <path id="Path_521" data-name="Path 521" d="M331.419,297.741c-.1.334-2.406-.195-6.078-1.391-1.836-.57-4.02-1.294-6.426-2.114s-4.868-2.128-7.525-3.338c-10.613-4.924-18.722-9.736-18.458-10.321s8.985,3.185,19.473,8.067c2.643,1.2,5.091,2.5,7.4,3.463s4.381,1.808,6.12,2.587C329.4,296.294,331.516,297.407,331.419,297.741Z" transform="translate(-17.679 -61.51)" fill="#f1cc94"/>
      <path id="Path_522" data-name="Path 522" d="M171.361,183.289s-29.015-18-44.885,21.212,14.646,45.65,14.646,45.65a260.98,260.98,0,0,0,30.239-66.862Z" transform="translate(-84.537 -101.131)" fill="#f1cc94"/>
      <g id="Group_66" data-name="Group 66" transform="translate(34.483 35.423)" opacity="0.5">
        <path id="Path_523" data-name="Path 523" d="M203.035,148.53c.181,0-.236,2.7-1.127,7.5s-2.225,11.739-4.089,20.28l-4.034,13.728q-1.1,3.686-2.267,7.636l-1.182,3.992c-.431,1.391-1,2.657-1.5,4.006l-6.551,16.914c-.57,1.474-1.154,2.949-1.725,4.437s-1.391,2.907-2.045,4.381l-4.312,8.9-4.326,8.888c-.737,1.391-1.391,2.949-2.184,4.312s-1.627,2.782-2.42,4.1l-9.25,15.62c-.751,1.224-1.391,2.49-2.225,3.658l-2.406,3.408-4.618,6.51-8.346,11.642c-5.564,6.718-10.209,12.018-13.409,15.7a45.578,45.578,0,0,1-5.188,5.564,44.948,44.948,0,0,1,4.451-6.148c3.088-3.936,7.441-9.444,12.783-16.218l8-11.725,4.479-6.523c.779-1.113,1.558-2.253,2.351-3.408s1.391-2.42,2.156-3.658l9.138-15.606,2.378-4.089c.821-1.391,1.391-2.782,2.156-4.284L172,239.218c1.391-2.99,2.879-5.925,4.3-8.832.668-1.391,1.474-2.865,2.031-4.34l1.739-4.4,6.649-16.691c.515-1.391,1.1-2.629,1.544-3.964s.821-2.643,1.224-3.95l2.365-7.553,4.27-13.562,4.827-20.029a44.9,44.9,0,0,1,2.086-7.372Z" transform="translate(-119.83 -148.53)"/>
      </g>
      <g id="Group_67" data-name="Group 67" transform="translate(171.99 267.489)" opacity="0.4">
        <path id="Path_524" data-name="Path 524" d="M218.69,355.191c2.657,4.813,5.355,9.736,9.264,13.534s9.25,6.5,14.813,5.939,10.641-5.091,10.7-10.571c2.615,1.961,6.635.9,8.8-1.558s2.879-5.87,3.13-9.138c3.561,2.1,8.512.445,10.891-2.935a14.1,14.1,0,0,0,1.391-11.906,41.963,41.963,0,0,0-5.717-10.947c2.782.223,5.647.417,8.1-.821s4.173-4.493,2.684-6.829a6.718,6.718,0,0,0-3.992-2.545c-4.3-1.391-7.3-2.42-11.781-1.906-1.029,0,1.794,11.8-26.261,27.9C224.059,352.938,218.69,355.191,218.69,355.191Z" transform="translate(-218.69 -315.373)"/>
      </g>
      <path id="Path_525" data-name="Path 525" d="M272.116,356.388c0,.125-1.878-.236-4.91-.153a27.819,27.819,0,0,0-20.613,9.889c-1.961,2.309-2.782,3.992-2.963,3.922a4.284,4.284,0,0,1,.542-1.224,24.354,24.354,0,0,1,2.017-3.032,26.427,26.427,0,0,1,21.017-10.07,21.192,21.192,0,0,1,3.616.334,3.8,3.8,0,0,1,1.294.334Z" transform="translate(-36.95 -32.112)" fill="#eb996e"/>
      <path id="Path_526" data-name="Path 526" d="M220,345.533c4.52,4.34,7.608,9.138,12.351,13.506,2.156,1.989,5.564,5.745,8.346,6.245s4.729.125,5.87-2.573c.932-2.184-.737-5.174-1.878-6.955-3.018-4.743-5.911-8.443-8.165-12.129-1.071-1.725.306-2.086.807-1.28,2.17,2.253,5.425,4.173,7.372,6.663,2.671,3.352,3.143,7.817,10.126,6.4a6.091,6.091,0,0,0,2.587-1.071c2.629-2.017,2.782-5.564,1.641-8.346a22.7,22.7,0,0,0-3.895-5.87c2.977,3.352,6.217,6.955,10.947,7.261a6.5,6.5,0,0,0,6.607-3.575c1.391-3.171-.6-6.245-2.615-8.721a91.355,91.355,0,0,0-11.865-12.129,9.083,9.083,0,0,0-5.758-2.128c-2.448,0-5.564.445-6.955,2.559a9.528,9.528,0,0,0-1.906,7.275s-6.12-3.1-11.044.139a15.662,15.662,0,0,0-6.148,8.846Z" transform="translate(-46.188 -45.751)" fill="#ffbe9d"/>
      <path id="Path_527" data-name="Path 527" d="M243.95,323.607a7.344,7.344,0,0,1-.862-8.345c1.043-2.045,2.351-4.034,3.686-4.479,5.828-1.961,31.31,2.448,31.073,8.1s-2.1,8.346-15.912,6.357c-2.434-.348-6.245-.821-6.245-.821l-3.338,5.007Z" transform="translate(-37.521 -49.864)" fill="#ffbe9d"/>
      <path id="Path_528" data-name="Path 528" d="M250.674,340.467A33.23,33.23,0,0,0,236.64,327.74a8.1,8.1,0,0,1,2.7.946,24.216,24.216,0,0,1,10.126,9.18,7.775,7.775,0,0,1,1.21,2.6Z" transform="translate(-39.683 -43.05)" fill="#eb996e"/>
      <path id="Path_529" data-name="Path 529" d="M252.167,325.8c-.125.111-1.808-1.252-4.1-2.657a29.847,29.847,0,0,0-2.977-1.655c-.793-.362-1.321-.459-1.307-.57s.6-.167,1.474.1a13.491,13.491,0,0,1,3.2,1.516C250.8,323.962,252.348,325.645,252.167,325.8Z" transform="translate(-36.892 -45.754)" fill="#eb996e"/>
      <path id="Path_530" data-name="Path 530" d="M255.414,321.578a10.891,10.891,0,0,1-4.91-.556,9.07,9.07,0,0,1-3.143-1.7c-.7-.6-.988-1.085-.918-1.154a20.865,20.865,0,0,0,4.27,2.114,36.6,36.6,0,0,1,4.7,1.294Z" transform="translate(-35.854 -46.791)" fill="#eb996e"/>
      <path id="Path_531" data-name="Path 531" d="M240.778,345.481a18.081,18.081,0,0,1-2.323-3.018,27.024,27.024,0,0,0-5.939-6.76,11.948,11.948,0,0,0-8.429-2.226,14.3,14.3,0,0,0-3.547,1.127,3.663,3.663,0,0,1,.821-.64,7.761,7.761,0,0,1,2.643-1,11.879,11.879,0,0,1,8.93,2.156,24.092,24.092,0,0,1,5.953,7.052A22.648,22.648,0,0,1,240.778,345.481Z" transform="translate(-45.977 -41.067)" fill="#eb996e"/>
      <path id="Path_532" data-name="Path 532" d="M254.976,382.42a77.866,77.866,0,0,1-10.4,1.488,75.415,75.415,0,0,1-10.5.779,78.369,78.369,0,0,1,10.418-1.488,77.891,77.891,0,0,1,10.488-.779Z" transform="translate(-40.687 -21.674)" fill="#eb996e"/>
    </g>
    <path id="Path_544" data-name="Path 544" d="M407.877,49.84l1.572,2.879,2.865,1.572-2.865,1.572-1.572,2.865-1.572-2.865-2.865-1.572,2.865-1.572Z" transform="translate(1221.314 5291.094)" fill="#f1cc94"/>
    <path id="Path_545" data-name="Path 545" d="M431.491,101.01l1.572,2.879,2.865,1.572-2.865,1.572-1.572,2.865-1.572-2.865-2.879-1.572,2.879-1.572Z" transform="translate(1230.539 5311.098)" fill="#f1cc94"/>
    <path id="Path_551" data-name="Path 551" d="M53.147,237.53l1.572,2.879,2.879,1.572-2.879,1.558-1.572,2.879-1.572-2.879-2.865-1.558,2.865-1.572Z" transform="translate(1082.641 5364.466)" fill="#f1cc94"/>
    <path id="Path_546" data-name="Path 546" d="M378.541,62.56l3.63,6.635,6.635,3.63-6.635,3.616-3.63,6.635-3.616-6.635-6.635-3.616,6.635-3.63Z" transform="translate(1207.572 5296.066)" fill="#f1cc94"/>
    <path id="Path_552" data-name="Path 552" d="M75.937,205.1l3.616,6.607,6.621,3.616-6.621,3.63-3.616,6.607-3.616-6.607-6.621-3.63,6.621-3.616Z" transform="translate(1089.283 5351.789)" fill="#f1cc94"/>
    <path id="Path_553" data-name="Path 553" d="M439.537,318.56l3.616,6.621,6.607,3.616-6.607,3.616-3.616,6.621-3.616-6.621L429.3,328.8l6.621-3.616Z" transform="translate(1231.424 5396.143)" fill="#f1cc94"/>
  </g>
</svg>
