<svg xmlns="http://www.w3.org/2000/svg" width="756.803" height="722.698" viewBox="0 0 756.803 722.698">
  <g id="Join_Our_Team" data-name="Join Our Team" transform="translate(-1168.155 -2939.187)">
    <g id="Group_81" data-name="Group 81" transform="translate(1260.453 2939.639)">
      <ellipse id="Ellipse_48" data-name="Ellipse 48" cx="277.485" cy="278.039" rx="277.485" ry="278.039" transform="translate(0 61.202)" fill="#2a2a2a"/>
      <g id="Megaphone" transform="translate(47.238 0)">
        <path id="Path_510" data-name="Path 510" d="M321,423.426l6.547-21.989c1.147-4.771,2.663-10.393,4.7-16.811,1.849-5.77,6.547-11.836,10.837-16.2,6.676-6.787,9.857-6.824,14.333-10.43.407-.259.869-.647,1.258-.851a7.045,7.045,0,0,0,2.182-1.849c3.865-4.18.148-10.671-7.712-10.042-5.9.462-15.553,2.145-31.236,18.327-.2.259-.407.462-.592.7-8.23,10.708-15.96-19.844-17.366-31.217a11.891,11.891,0,0,0-16.108-9.247l-38.208,17.865a17.882,17.882,0,0,0-11.1.37,11.392,11.392,0,0,0-7.286,13.482l15.516,61.787L201.25,568.785h98.108Z" transform="translate(-4.827 46.748)" fill="#ffbe9d" stroke="#707070" stroke-width="1"/>
        <path id="Path_511" data-name="Path 511" d="M385.866,311.865,355.537,371.3l-15.165-4.217L264.179,429.1a15.424,15.424,0,0,1-21.434-1.849L213.71,393.532s58.532-25.207,69.351-46.067-1.683-25.614-1.683-25.614l27.537-31.291Z" transform="translate(5.756 19.201)" fill="#f1cc94" stroke="#707070" stroke-width="1"/>
        <path id="Path_512" data-name="Path 512" d="M447.325,332.737s-44.384-9.82-106.874-69.887-91.82-139.9-99.384-139.46-41.037-15.109-104.544,123.019S98.037,416.55,110.632,416.365s98.423-24.171,152.017-18.087,122.483,34.028,122.483,34.028Z" transform="translate(-95.038 -123.063)" fill="#f1cc94" stroke="#707070" stroke-width="1"/>
        <path id="Path_513" data-name="Path 513" d="M412.792,323.661l-15.146,28.794L390.859,365.4a37.579,37.579,0,0,1-48.989,16.644L246.72,348.886,302.2,222.39l95.057,50.654a37.579,37.579,0,0,1,15.535,50.617Z" transform="translate(33.793 -38.699)" fill="#f1cc94" stroke="#707070" stroke-width="1"/>
        <g id="Group_63" data-name="Group 63" transform="translate(280.513 183.691)" opacity="0.4">
          <path id="Path_514" data-name="Path 514" d="M412.792,323.661l-15.146,28.794L390.859,365.4a37.579,37.579,0,0,1-48.989,16.644L246.72,348.886,302.2,222.39l95.057,50.654a37.579,37.579,0,0,1,15.535,50.617Z" transform="translate(-246.72 -222.39)" stroke="#707070" stroke-width="1"/>
        </g>
        <path id="Path_515" data-name="Path 515" d="M137.8,247.488C104.012,322.313,89.938,389,106.36,396.417s57.164-47.214,90.951-122.057,47.861-141.494,31.439-148.928S171.587,172.663,137.8,247.488Z" transform="translate(-91.248 -121.627)" fill="#a77933" stroke="#707070" stroke-width="1"/>
        <g id="Group_64" data-name="Group 64" transform="translate(8.253 3.127)" opacity="0.5">
          <path id="Path_516" data-name="Path 516" d="M137.8,247.488C104.012,322.313,89.938,389,106.36,396.417s57.164-47.214,90.951-122.057,47.861-141.494,31.439-148.928S171.587,172.663,137.8,247.488Z" transform="translate(-99.501 -124.754)" fill="#dcb06d" stroke="#707070" stroke-width="1"/>
        </g>
        <path id="Path_517" data-name="Path 517" d="M352.789,317.3l-25.8-8.1,15.96-30.329,19.344,12.021Z" transform="translate(101.971 9.272)" fill="#f1cc94" stroke="#707070" stroke-width="1"/>
        <g id="Group_65" data-name="Group 65" transform="translate(428.961 288.142)" opacity="0.6">
          <path id="Path_518" data-name="Path 518" d="M342.95,278.87,326.99,309.2l5.308,1.664,12.964-30.57Z" transform="translate(-326.99 -278.87)" stroke="#707070" stroke-width="1"/>
        </g>
        <path id="Path_519" data-name="Path 519" d="M351.781,294.311c-.37.832-13.241-4.161-28.739-11.1s-27.74-13.371-27.389-14.2,13.241,4.18,28.757,11.189S352.17,293.478,351.781,294.311Z" transform="translate(75.349 0.822)" fill="#f1cc94" stroke="#707070" stroke-width="1"/>
        <path id="Path_520" data-name="Path 520" d="M353.526,284.363c-.407.814-12.058-4.087-26.02-10.967s-24.948-13.112-24.541-13.944,12.039,4.087,26,10.967S353.933,283.531,353.526,284.363Z" transform="translate(81.556 -7.298)" fill="#f1cc94" stroke="#707070" stroke-width="1"/>
        <path id="Path_521" data-name="Path 521" d="M344.105,303.418c-.129.444-3.2-.259-8.082-1.849-2.441-.758-5.345-1.72-8.544-2.811s-6.473-2.829-10.005-4.438c-14.111-6.547-24.892-12.946-24.541-13.722s11.947,4.235,25.891,10.726c3.514,1.59,6.769,3.329,9.839,4.6s5.826,2.4,8.137,3.44C341.424,301.494,344.235,302.974,344.105,303.418Z" transform="translate(73.038 10.671)" fill="#f1cc94" stroke="#707070" stroke-width="1"/>
        <path id="Path_522" data-name="Path 522" d="M187.662,184.648s-38.578-23.931-59.679,28.2,19.474,60.7,19.474,60.7a347,347,0,0,0,40.2-88.9Z" transform="translate(-72.222 -75.412)" fill="#f1cc94" stroke="#707070" stroke-width="1"/>
        <g id="Group_66" data-name="Group 66" transform="translate(45.849 47.098)" opacity="0.5">
          <path id="Path_523" data-name="Path 523" d="M230.458,148.53c.24,0-.314,3.588-1.5,9.968s-2.959,15.609-5.437,26.964l-5.363,18.253q-1.461,4.9-3.014,10.153l-1.572,5.308c-.573,1.849-1.332,3.532-2,5.326l-8.71,22.488c-.758,1.96-1.535,3.921-2.293,5.9s-1.849,3.865-2.719,5.825l-5.733,11.836-5.751,11.817c-.98,1.849-1.849,3.921-2.9,5.733s-2.164,3.7-3.218,5.456l-12.3,20.768c-1,1.627-1.849,3.31-2.959,4.864l-3.2,4.531-6.14,8.655-11.1,15.479c-7.4,8.932-13.574,15.978-17.828,20.879a60.6,60.6,0,0,1-6.9,7.4,59.758,59.758,0,0,1,5.918-8.174c4.106-5.234,9.894-12.557,17-21.563l10.634-15.59,5.955-8.673c1.036-1.479,2.071-3,3.125-4.531s1.849-3.218,2.867-4.864l12.15-20.75,3.162-5.437c1.091-1.849,1.849-3.7,2.867-5.7l5.7-11.743c1.849-3.976,3.828-7.878,5.715-11.743.888-1.849,1.96-3.81,2.7-5.77l2.312-5.844,8.84-22.192c.684-1.849,1.461-3.5,2.053-5.271s1.091-3.514,1.627-5.252l3.144-10.042,5.678-18.031,6.417-26.631a59.694,59.694,0,0,1,2.774-9.8Z" transform="translate(-119.83 -148.53)" stroke="#707070" stroke-width="1"/>
        </g>
        <g id="Group_67" data-name="Group 67" transform="translate(228.676 355.65)" opacity="0.4">
          <path id="Path_524" data-name="Path 524" d="M218.69,368.314c3.532,6.4,7.12,12.945,12.317,17.994s12.3,8.636,19.7,7.9,14.148-6.769,14.222-14.055c3.477,2.608,8.821,1.2,11.706-2.071s3.828-7.8,4.161-12.15c4.734,2.793,11.318.592,14.48-3.9a18.752,18.752,0,0,0,1.849-15.83,55.794,55.794,0,0,0-7.6-14.554c3.7.3,7.508.555,10.763-1.091s5.548-5.973,3.569-9.08a8.932,8.932,0,0,0-5.308-3.384c-5.715-1.849-9.709-3.218-15.664-2.534-1.369,0,2.386,15.683-34.916,37.1C225.829,365.318,218.69,368.314,218.69,368.314Z" transform="translate(-218.69 -315.373)" stroke="#707070" stroke-width="1"/>
        </g>
        <path id="Path_525" data-name="Path 525" d="M281.5,356.608c0,.166-2.5-.314-6.528-.2a36.987,36.987,0,0,0-27.407,13.149c-2.608,3.07-3.7,5.308-3.939,5.215a5.7,5.7,0,0,1,.721-1.627,32.378,32.378,0,0,1,2.682-4.032,35.138,35.138,0,0,1,27.944-13.389,28.183,28.183,0,0,1,4.808.444,5.053,5.053,0,0,1,1.72.444Z" transform="translate(31.169 74.544)" fill="#eb996e" stroke="#707070" stroke-width="1"/>
        <path id="Path_526" data-name="Path 526" d="M220,353.675c6.01,5.77,10.116,12.15,16.422,17.957,2.866,2.645,7.4,7.638,11.1,8.3s6.288.167,7.8-3.421c1.239-2.9-.98-6.88-2.5-9.247-4.013-6.306-7.86-11.226-10.856-16.126-1.424-2.293.407-2.774,1.073-1.7,2.885,3,7.212,5.548,9.8,8.858,3.551,4.457,4.18,10.393,13.463,8.507a8.1,8.1,0,0,0,3.44-1.424c3.5-2.681,3.7-7.4,2.182-11.1a30.18,30.18,0,0,0-5.178-7.8c3.958,4.457,8.267,9.247,14.554,9.654a8.636,8.636,0,0,0,8.784-4.753c1.849-4.217-.8-8.3-3.477-11.6a121.467,121.467,0,0,0-15.775-16.126,12.076,12.076,0,0,0-7.656-2.829c-3.255,0-7.4.592-9.247,3.4A12.668,12.668,0,0,0,251.4,333.9s-8.137-4.124-14.684.185a20.825,20.825,0,0,0-8.174,11.762Z" transform="translate(11.099 44.911)" fill="#ffbe9d" stroke="#707070" stroke-width="1"/>
        <path id="Path_527" data-name="Path 527" d="M244.536,327.99a9.764,9.764,0,0,1-1.147-11.1c1.387-2.719,3.125-5.363,4.9-5.955,7.749-2.608,41.629,3.255,41.315,10.763s-2.793,11.1-21.157,8.452c-3.236-.462-8.3-1.091-8.3-1.091l-4.438,6.658Z" transform="translate(29.93 35.976)" fill="#ffbe9d" stroke="#707070" stroke-width="1"/>
        <path id="Path_528" data-name="Path 528" d="M255.3,344.662a44.182,44.182,0,0,0-18.66-16.922A10.764,10.764,0,0,1,240.228,329,32.2,32.2,0,0,1,253.691,341.2a10.339,10.339,0,0,1,1.609,3.458Z" transform="translate(25.232 50.78)" fill="#eb996e" stroke="#707070" stroke-width="1"/>
        <path id="Path_529" data-name="Path 529" d="M254.932,327.438c-.166.148-2.4-1.664-5.456-3.532a39.681,39.681,0,0,0-3.958-2.2c-1.054-.481-1.757-.61-1.738-.758s.8-.222,1.96.13a17.937,17.937,0,0,1,4.254,2.016C253.119,325,255.172,327.234,254.932,327.438Z" transform="translate(31.296 44.906)" fill="#eb996e" stroke="#707070" stroke-width="1"/>
        <path id="Path_530" data-name="Path 530" d="M258.374,322.7a14.48,14.48,0,0,1-6.528-.74,12.058,12.058,0,0,1-4.179-2.256c-.925-.8-1.313-1.442-1.221-1.535a27.744,27.744,0,0,0,5.678,2.811,48.661,48.661,0,0,1,6.251,1.72Z" transform="translate(33.55 42.652)" fill="#eb996e" stroke="#707070" stroke-width="1"/>
        <path id="Path_531" data-name="Path 531" d="M247.448,349.657a24.038,24.038,0,0,1-3.088-4.013,35.931,35.931,0,0,0-7.9-8.988,15.885,15.885,0,0,0-11.207-2.959,19.014,19.014,0,0,0-4.716,1.5,4.87,4.87,0,0,1,1.091-.851,10.318,10.318,0,0,1,3.514-1.332,15.794,15.794,0,0,1,11.873,2.867,32.032,32.032,0,0,1,7.915,9.376A30.115,30.115,0,0,1,247.448,349.657Z" transform="translate(11.557 55.087)" fill="#eb996e" stroke="#707070" stroke-width="1"/>
        <path id="Path_532" data-name="Path 532" d="M261.866,382.42a103.529,103.529,0,0,1-13.833,1.979,100.271,100.271,0,0,1-13.963,1.036,104.193,104.193,0,0,1,13.852-1.979,103.57,103.57,0,0,1,13.944-1.036Z" transform="translate(23.049 97.223)" fill="#eb996e" stroke="#707070" stroke-width="1"/>
      </g>
    </g>
    <path id="Path_549" data-name="Path 549" d="M122,430.044h0A48.168,48.168,0,0,1,64.01,394.35h0a48.169,48.169,0,0,1,35.734-58.038h0a48.169,48.169,0,0,1,58.025,35.694h0A48.168,48.168,0,0,1,122,430.044Z" transform="translate(1149.217 3099.288)" fill="#2a2a2a"/>
    <path id="Path_570" data-name="Path 570" d="M105.182,403.093h0a34.511,34.511,0,0,1-41.544-25.574h0a34.511,34.511,0,0,1,25.6-41.582h0a34.511,34.511,0,0,1,41.572,25.574h0a34.511,34.511,0,0,1-25.63,41.582Z" transform="translate(1322.712 2984.197)" fill="#f1cc94"/>
    <path id="Path_565" data-name="Path 565" d="M122,430.044h0A48.168,48.168,0,0,1,64.01,394.35h0a48.169,48.169,0,0,1,35.734-58.038h0a48.169,48.169,0,0,1,58.025,35.694h0A48.168,48.168,0,0,1,122,430.044Z" transform="translate(1765.879 2816.317)" fill="#989898"/>
    <path id="Path_561" data-name="Path 561" d="M122,430.044h0A48.168,48.168,0,0,1,64.01,394.35h0a48.169,48.169,0,0,1,35.734-58.038h0a48.169,48.169,0,0,1,58.025,35.694h0A48.168,48.168,0,0,1,122,430.044Z" transform="translate(1475.29 2604.837)" fill="#2a2a2a"/>
    <path id="Path_562" data-name="Path 562" d="M104.206,401.528h0a33.718,33.718,0,0,1-40.59-24.986h0a33.718,33.718,0,0,1,25.013-40.626h0A33.718,33.718,0,0,1,129.247,360.9h0a33.718,33.718,0,0,1-25.041,40.626Z" transform="translate(1735.722 3103.075)" fill="#2a2a2a"/>
    <path id="Path_552" data-name="Path 552" d="M90.325,205.1l8.7,15.893,15.926,8.7-15.926,8.733-8.7,15.893-8.7-15.893L65.7,229.692l15.926-8.7Z" transform="translate(1132.447 2962.735)" fill="#989898"/>
    <path id="Path_568" data-name="Path 568" d="M90.325,205.1l8.7,15.893,15.926,8.7-15.926,8.733-8.7,15.893-8.7-15.893L65.7,229.692l15.926-8.7Z" transform="translate(1461.329 3407.567)" fill="#989898"/>
    <path id="Path_563" data-name="Path 563" d="M82.027,205.1l5.768,10.537L98.354,221.4l-10.559,5.79-5.768,10.537-5.768-10.537L65.7,221.4l10.559-5.768Z" transform="translate(1793.374 3162.427)" fill="#989898"/>
    <path id="Path_567" data-name="Path 567" d="M82.027,205.1l5.768,10.537L98.354,221.4l-10.559,5.79-5.768,10.537-5.768-10.537L65.7,221.4l10.559-5.768Z" transform="translate(1767.106 2910.781)" fill="#efefef"/>
    <path id="Path_572" data-name="Path 572" d="M82.027,205.1l5.768,10.537L98.354,221.4l-10.559,5.79-5.768,10.537-5.768-10.537L65.7,221.4l10.559-5.768Z" transform="translate(1334.085 3065.062)" fill="#efefef"/>
    <path id="Path_560" data-name="Path 560" d="M90.325,205.1l8.7,15.893,15.926,8.7-15.926,8.733-8.7,15.893-8.7-15.893L65.7,229.692l15.926-8.7Z" transform="translate(1643.008 2816.479)" fill="#989898"/>
    <path id="Path_558" data-name="Path 558" d="M73.781,205.1l2.855,5.215,5.226,2.855-5.226,2.866-2.855,5.215-2.855-5.215L65.7,213.17l5.226-2.855Z" transform="translate(1102.455 3023.145)" fill="#989898"/>
    <path id="Path_569" data-name="Path 569" d="M73.781,205.1l2.855,5.215,5.226,2.855-5.226,2.866-2.855,5.215-2.855-5.215L65.7,213.17l5.226-2.855Z" transform="translate(1517.758 3370.165)" fill="#989898"/>
    <path id="Path_564" data-name="Path 564" d="M71.058,205.1l1.893,3.458,3.465,1.893-3.465,1.9-1.893,3.458-1.893-3.458-3.465-1.9,3.465-1.893Z" transform="translate(1773.491 3202.478)" fill="#989898"/>
    <path id="Path_566" data-name="Path 566" d="M71.058,205.1l1.893,3.458,3.465,1.893-3.465,1.9-1.893,3.458-1.893-3.458-3.465-1.9,3.465-1.893Z" transform="translate(1811.07 2938.059)" fill="#efefef"/>
    <path id="Path_571" data-name="Path 571" d="M71.058,205.1l1.893,3.458,3.465,1.893-3.465,1.9-1.893,3.458-1.893-3.458-3.465-1.9,3.465-1.893Z" transform="translate(1378.049 3092.34)" fill="#efefef"/>
    <path id="Path_573" data-name="Path 573" d="M71.058,205.1l1.893,3.458,3.465,1.893-3.465,1.9-1.893,3.458-1.893-3.458-3.465-1.9,3.465-1.893Z" transform="translate(1298.134 3218.47)" fill="#efefef"/>
    <path id="Path_574" data-name="Path 574" d="M71.058,205.1l1.893,3.458,3.465,1.893-3.465,1.9-1.893,3.458-1.893-3.458-3.465-1.9,3.465-1.893Z" transform="translate(1149.918 3143.256)" fill="#efefef"/>
    <path id="Path_576" data-name="Path 576" d="M71.058,205.1l1.893,3.458,3.465,1.893-3.465,1.9-1.893,3.458-1.893-3.458-3.465-1.9,3.465-1.893Z" transform="translate(1308.995 3359.458)" fill="#efefef"/>
    <path id="Path_575" data-name="Path 575" d="M71.058,205.1l1.893,3.458,3.465,1.893-3.465,1.9-1.893,3.458-1.893-3.458-3.465-1.9,3.465-1.893Z" transform="translate(1197.645 2884.641)" fill="#efefef"/>
    <path id="Path_559" data-name="Path 559" d="M73.781,205.1l2.855,5.215,5.226,2.855-5.226,2.866-2.855,5.215-2.855-5.215L65.7,213.17l5.226-2.855Z" transform="translate(1613.016 2876.889)" fill="#f1cc94"/>
    <text id="PHP" transform="translate(1226.333 3496.364)" fill="#f1cc94" font-size="36" font-family="Poppins-Regular, Poppins" letter-spacing="-0.06em"><tspan x="0" y="0">PHP</tspan></text>
    <text id="PS" transform="translate(1406.063 3360.952)" fill="#2a2a2a" font-size="24" font-family="Poppins-Regular, Poppins" letter-spacing="-0.06em"><tspan x="0" y="0">PS</tspan></text>
    <text id="CSS" transform="translate(1845.483 3212.061)" fill="#101010" font-size="36" font-family="Poppins-Regular, Poppins" letter-spacing="-0.06em"><tspan x="0" y="0">CSS</tspan></text>
    <text id="XD" transform="translate(1562.356 2998.774)" fill="#f1cc94" font-size="37" font-family="Poppins-Regular, Poppins" letter-spacing="-0.06em"><tspan x="0" y="0">XD</tspan></text>
    <text id="Ai" transform="translate(1815.87 3481.707)" fill="#f1cc94" font-size="36" font-family="Poppins-Regular, Poppins" letter-spacing="-0.06em"><tspan x="0" y="0">Ai</tspan></text>
  </g>
</svg>
