<svg xmlns="http://www.w3.org/2000/svg" width="755.921" height="721.856" viewBox="0 0 755.921 721.856">
  <g id="Join_Our_Team_vector_dasrk" data-name="Join Our Team vector dasrk" transform="translate(-1168.155 -2939.187)">
    <g id="Group_81" data-name="Group 81" transform="translate(1260.345 2939.639)">
      <ellipse id="Ellipse_48" data-name="Ellipse 48" cx="277.161" cy="277.716" rx="277.161" ry="277.716" transform="translate(0 61.131)" fill="#2a2a2a"/>
      <g id="Megaphone" transform="translate(47.183 0)">
        <path id="Path_510" data-name="Path 510" d="M320.856,423.309l6.539-21.963c1.145-4.766,2.66-10.381,4.692-16.791,1.847-5.763,6.539-11.822,10.825-16.181,6.668-6.779,9.846-6.816,14.316-10.418.406-.259.868-.646,1.256-.85a7.036,7.036,0,0,0,2.18-1.847c3.861-4.175.148-10.658-7.7-10.03-5.893.462-15.535,2.143-31.2,18.306-.2.259-.406.462-.591.7-8.22,10.7-15.941-19.82-17.345-31.181a11.877,11.877,0,0,0-16.089-9.236l-38.163,17.844a17.861,17.861,0,0,0-11.083.369,11.379,11.379,0,0,0-7.278,13.466l15.5,61.715L201.25,568.5h97.994Z" transform="translate(-5.056 46.317)" fill="#ffbe9d" stroke="#707070" stroke-width="1"/>
        <path id="Path_511" data-name="Path 511" d="M385.666,311.84l-30.294,59.369L340.225,367l-76.1,61.937a15.406,15.406,0,0,1-21.409-1.847l-29-33.674s58.464-25.177,69.27-46.014-1.681-25.584-1.681-25.584l27.5-31.255Z" transform="translate(5.5 18.84)" fill="#f1cc94" stroke="#707070" stroke-width="1"/>
        <path id="Path_512" data-name="Path 512" d="M446.915,332.493s-44.333-9.809-106.75-69.806S248.452,122.947,240.9,123.39,199.907,108.3,136.474,246.266s-38.44,169.942-25.861,169.758,98.308-24.143,151.84-18.066,122.34,33.988,122.34,33.988Z" transform="translate(-95.038 -123.063)" fill="#f1cc94" stroke="#707070" stroke-width="1"/>
        <path id="Path_513" data-name="Path 513" d="M412.6,323.543,397.47,352.3l-6.779,12.93a37.535,37.535,0,0,1-48.932,16.625l-95.038-33.12L302.136,222.39l94.946,50.595A37.535,37.535,0,0,1,412.6,323.543Z" transform="translate(33.467 -38.913)" fill="#f1cc94" stroke="#707070" stroke-width="1"/>
        <g id="Group_63" data-name="Group 63" transform="translate(280.187 183.477)" opacity="0.4">
          <path id="Path_514" data-name="Path 514" d="M412.6,323.543,397.47,352.3l-6.779,12.93a37.535,37.535,0,0,1-48.932,16.625l-95.038-33.12L302.136,222.39l94.946,50.595A37.535,37.535,0,0,1,412.6,323.543Z" transform="translate(-246.72 -222.39)" stroke="#707070" stroke-width="1"/>
        </g>
        <path id="Path_515" data-name="Path 515" d="M137.755,247.345c-33.748,74.738-47.806,141.348-31.4,148.755s57.1-47.159,90.845-121.915S245,132.856,228.6,125.43,171.5,172.607,137.755,247.345Z" transform="translate(-91.258 -121.63)" fill="#a77933" stroke="#707070" stroke-width="1"/>
        <g id="Group_64" data-name="Group 64" transform="translate(8.243 3.124)" opacity="0.5">
          <path id="Path_516" data-name="Path 516" d="M137.755,247.345c-33.748,74.738-47.806,141.348-31.4,148.755s57.1-47.159,90.845-121.915S245,132.856,228.6,125.43,171.5,172.607,137.755,247.345Z" transform="translate(-99.501 -124.754)" fill="#dcb06d" stroke="#707070" stroke-width="1"/>
        </g>
        <path id="Path_517" data-name="Path 517" d="M352.758,317.255l-25.768-8.091,15.941-30.294,19.322,12.007Z" transform="translate(101.471 8.936)" fill="#f1cc94" stroke="#707070" stroke-width="1"/>
        <g id="Group_65" data-name="Group 65" transform="translate(428.461 287.807)" opacity="0.6">
          <path id="Path_518" data-name="Path 518" d="M342.931,278.87,326.99,309.164l5.3,1.662,12.949-30.534Z" transform="translate(-326.99 -278.87)" stroke="#707070" stroke-width="1"/>
        </g>
        <path id="Path_519" data-name="Path 519" d="M351.716,294.281c-.369.831-13.226-4.156-28.706-11.083s-27.708-13.355-27.357-14.187,13.226,4.175,28.724,11.176S352.1,293.45,351.716,294.281Z" transform="translate(74.917 0.508)" fill="#f1cc94" stroke="#707070" stroke-width="1"/>
        <path id="Path_520" data-name="Path 520" d="M353.467,284.334c-.406.813-12.044-4.082-25.99-10.954s-24.919-13.1-24.512-13.928,12.025,4.082,25.972,10.954S353.874,283.5,353.467,284.334Z" transform="translate(81.108 -7.592)" fill="#f1cc94" stroke="#707070" stroke-width="1"/>
        <path id="Path_521" data-name="Path 521" d="M344.046,303.391c-.129.443-3.2-.259-8.072-1.847-2.438-.757-5.338-1.718-8.534-2.808s-6.465-2.826-9.993-4.433c-14.094-6.539-24.863-12.93-24.512-13.706s11.933,4.23,25.861,10.714c3.51,1.589,6.761,3.325,9.827,4.6s5.819,2.4,8.128,3.436C341.367,301.47,344.175,302.948,344.046,303.391Z" transform="translate(72.612 10.332)" fill="#f1cc94" stroke="#707070" stroke-width="1"/>
        <path id="Path_522" data-name="Path 522" d="M187.586,184.642s-38.533-23.9-59.609,28.17,19.451,60.625,19.451,60.625a346.591,346.591,0,0,0,40.158-88.795Z" transform="translate(-72.28 -75.533)" fill="#f1cc94" stroke="#707070" stroke-width="1"/>
        <g id="Group_66" data-name="Group 66" transform="translate(45.795 47.043)" opacity="0.5">
          <path id="Path_523" data-name="Path 523" d="M230.33,148.53c.24,0-.314,3.584-1.5,9.956s-2.956,15.59-5.431,26.932l-5.357,18.232q-1.459,4.9-3.011,10.141l-1.57,5.3c-.573,1.847-1.33,3.528-1.995,5.32l-8.7,22.462c-.757,1.958-1.533,3.916-2.291,5.893s-1.847,3.861-2.715,5.819l-5.726,11.822-5.745,11.8c-.979,1.847-1.847,3.916-2.9,5.726s-2.161,3.694-3.214,5.449l-12.284,20.744c-1,1.626-1.847,3.307-2.956,4.858l-3.2,4.526-6.133,8.645-11.083,15.461c-7.389,8.922-13.558,15.96-17.807,20.855a60.527,60.527,0,0,1-6.89,7.389,59.692,59.692,0,0,1,5.911-8.165c4.1-5.228,9.882-12.543,16.976-21.538l10.621-15.572,5.948-8.663c1.034-1.478,2.069-2.992,3.122-4.526s1.847-3.214,2.863-4.858l12.136-20.726,3.159-5.431c1.09-1.847,1.847-3.694,2.863-5.689l5.689-11.73c1.847-3.971,3.824-7.869,5.708-11.73.887-1.847,1.958-3.805,2.7-5.763l2.309-5.837,8.83-22.166c.683-1.847,1.459-3.491,2.05-5.265s1.09-3.51,1.626-5.246l3.14-10.03,5.671-18.01,6.41-26.6a59.624,59.624,0,0,1,2.771-9.79Z" transform="translate(-119.83 -148.53)" stroke="#707070" stroke-width="1"/>
        </g>
        <g id="Group_67" data-name="Group 67" transform="translate(228.41 355.235)" opacity="0.4">
          <path id="Path_524" data-name="Path 524" d="M218.69,368.253c3.528,6.391,7.112,12.93,12.3,17.973s12.284,8.626,19.673,7.887,14.131-6.761,14.205-14.039c3.473,2.6,8.811,1.2,11.693-2.069s3.824-7.8,4.156-12.136c4.729,2.789,11.3.591,14.464-3.9a18.73,18.73,0,0,0,1.847-15.812,55.729,55.729,0,0,0-7.592-14.538c3.694.3,7.5.554,10.751-1.09s5.542-5.966,3.565-9.07a8.921,8.921,0,0,0-5.3-3.38c-5.708-1.847-9.7-3.214-15.646-2.531-1.367,0,2.383,15.664-34.875,37.055C225.82,365.26,218.69,368.253,218.69,368.253Z" transform="translate(-218.69 -315.373)" stroke="#707070" stroke-width="1"/>
        </g>
        <path id="Path_525" data-name="Path 525" d="M281.461,356.607c0,.166-2.494-.314-6.521-.2a36.944,36.944,0,0,0-27.376,13.134c-2.6,3.066-3.694,5.3-3.935,5.209a5.689,5.689,0,0,1,.72-1.626,32.343,32.343,0,0,1,2.678-4.027,35.1,35.1,0,0,1,27.911-13.374,28.149,28.149,0,0,1,4.8.443,5.047,5.047,0,0,1,1.718.443Z" transform="translate(30.849 74.043)" fill="#eb996e" stroke="#707070" stroke-width="1"/>
        <path id="Path_526" data-name="Path 526" d="M220,353.636c6,5.763,10.1,12.136,16.4,17.936,2.863,2.641,7.389,7.629,11.083,8.294s6.28.166,7.8-3.417c1.238-2.9-.979-6.872-2.494-9.236-4.008-6.3-7.851-11.213-10.843-16.108-1.422-2.29.406-2.771,1.071-1.7,2.882,2.993,7.2,5.542,9.79,8.848,3.547,4.452,4.175,10.381,13.448,8.5a8.088,8.088,0,0,0,3.436-1.422c3.491-2.678,3.694-7.389,2.18-11.083a30.145,30.145,0,0,0-5.172-7.8c3.953,4.452,8.257,9.236,14.538,9.642a8.626,8.626,0,0,0,8.774-4.747c1.847-4.212-.794-8.294-3.473-11.582a121.327,121.327,0,0,0-15.757-16.108,12.062,12.062,0,0,0-7.647-2.826c-3.251,0-7.389.591-9.236,3.4a12.653,12.653,0,0,0-2.531,9.661s-8.128-4.119-14.667.185a20.8,20.8,0,0,0-8.165,11.748Z" transform="translate(10.829 44.485)" fill="#ffbe9d" stroke="#707070" stroke-width="1"/>
        <path id="Path_527" data-name="Path 527" d="M244.534,327.97a9.753,9.753,0,0,1-1.145-11.083c1.385-2.715,3.122-5.357,4.9-5.948,7.74-2.6,41.581,3.251,41.267,10.751s-2.789,11.083-21.132,8.442c-3.233-.462-8.294-1.09-8.294-1.09l-4.433,6.65Z" transform="translate(29.613 35.572)" fill="#ffbe9d" stroke="#707070" stroke-width="1"/>
        <path id="Path_528" data-name="Path 528" d="M255.278,344.642a44.131,44.131,0,0,0-18.638-16.9A10.752,10.752,0,0,1,240.224,329a32.159,32.159,0,0,1,13.448,12.192,10.327,10.327,0,0,1,1.607,3.454Z" transform="translate(24.927 50.339)" fill="#eb996e" stroke="#707070" stroke-width="1"/>
        <path id="Path_529" data-name="Path 529" d="M254.919,327.43c-.166.148-2.4-1.662-5.449-3.528a39.647,39.647,0,0,0-3.953-2.2c-1.053-.48-1.755-.61-1.736-.757s.794-.222,1.958.129a17.917,17.917,0,0,1,4.249,2.013C253.109,324.992,255.159,327.227,254.919,327.43Z" transform="translate(30.976 44.479)" fill="#eb996e" stroke="#707070" stroke-width="1"/>
        <path id="Path_530" data-name="Path 530" d="M258.361,322.7a14.464,14.464,0,0,1-6.521-.739,12.045,12.045,0,0,1-4.175-2.254c-.924-.794-1.312-1.441-1.219-1.533a27.711,27.711,0,0,0,5.671,2.808,48.6,48.6,0,0,1,6.243,1.718Z" transform="translate(33.223 42.231)" fill="#eb996e" stroke="#707070" stroke-width="1"/>
        <path id="Path_531" data-name="Path 531" d="M247.417,349.637a24.009,24.009,0,0,1-3.085-4.008,35.889,35.889,0,0,0-7.888-8.977A15.867,15.867,0,0,0,225.25,333.7a19,19,0,0,0-4.71,1.5,4.866,4.866,0,0,1,1.09-.85,10.308,10.308,0,0,1,3.51-1.33A15.775,15.775,0,0,1,237,335.876a32,32,0,0,1,7.906,9.365A30.083,30.083,0,0,1,247.417,349.637Z" transform="translate(11.287 54.635)" fill="#eb996e" stroke="#707070" stroke-width="1"/>
        <path id="Path_532" data-name="Path 532" d="M261.833,382.42a103.415,103.415,0,0,1-13.817,1.977,100.155,100.155,0,0,1-13.946,1.034,104.064,104.064,0,0,1,13.836-1.977,103.439,103.439,0,0,1,13.928-1.034Z" transform="translate(22.75 96.664)" fill="#eb996e" stroke="#707070" stroke-width="1"/>
      </g>
    </g>
    <path id="Path_549" data-name="Path 549" d="M121.926,429.934h0a48.112,48.112,0,0,1-57.918-35.653h0A48.112,48.112,0,0,1,99.7,336.311h0a48.113,48.113,0,0,1,57.957,35.653h0a48.112,48.112,0,0,1-35.731,57.97Z" transform="translate(1149.166 3098.712)" fill="#2a2a2a"/>
    <path id="Path_570" data-name="Path 570" d="M105.132,403.014h0a34.47,34.47,0,0,1-41.5-25.544h0a34.471,34.471,0,0,1,25.572-41.534h0a34.471,34.471,0,0,1,41.524,25.544h0a34.471,34.471,0,0,1-25.6,41.534Z" transform="translate(1322.459 2983.755)" fill="#f1cc94"/>
    <path id="Path_565" data-name="Path 565" d="M121.926,429.934h0a48.112,48.112,0,0,1-57.918-35.653h0A48.112,48.112,0,0,1,99.7,336.311h0a48.113,48.113,0,0,1,57.957,35.653h0a48.112,48.112,0,0,1-35.731,57.97Z" transform="translate(1765.109 2816.07)" fill="#f1cc94"/>
    <path id="Path_561" data-name="Path 561" d="M121.926,429.934h0a48.112,48.112,0,0,1-57.918-35.653h0A48.112,48.112,0,0,1,99.7,336.311h0a48.113,48.113,0,0,1,57.957,35.653h0a48.112,48.112,0,0,1-35.731,57.97Z" transform="translate(1474.859 2604.837)" fill="#2a2a2a"/>
    <path id="Path_562" data-name="Path 562" d="M104.157,401.45h0a33.678,33.678,0,0,1-40.542-24.957h0A33.679,33.679,0,0,1,88.6,335.914h0a33.679,33.679,0,0,1,40.57,24.957h0a33.678,33.678,0,0,1-25.012,40.579Z" transform="translate(1734.987 3102.495)" fill="#2a2a2a"/>
    <path id="Path_552" data-name="Path 552" d="M90.3,205.1l8.689,15.874,15.908,8.689-15.908,8.722L90.3,254.26l-8.689-15.874L65.7,229.663l15.908-8.689Z" transform="translate(1132.412 2962.469)" fill="#f1cc94"/>
    <path id="Path_568" data-name="Path 568" d="M90.3,205.1l8.689,15.874,15.908,8.689-15.908,8.722L90.3,254.26l-8.689-15.874L65.7,229.663l15.908-8.689Z" transform="translate(1460.911 3406.783)" fill="#f1cc94"/>
    <path id="Path_563" data-name="Path 563" d="M82.008,205.1l5.761,10.525,10.547,5.761-10.547,5.783-5.761,10.525-5.761-10.525L65.7,221.385l10.547-5.761Z" transform="translate(1792.569 3161.928)" fill="#f1cc94"/>
    <path id="Path_567" data-name="Path 567" d="M82.008,205.1l5.761,10.525,10.547,5.761-10.547,5.783-5.761,10.525-5.761-10.525L65.7,221.385l10.547-5.761Z" transform="translate(1766.332 2910.575)" fill="#efefef"/>
    <path id="Path_572" data-name="Path 572" d="M82.008,205.1l5.761,10.525,10.547,5.761-10.547,5.783-5.761,10.525-5.761-10.525L65.7,221.385l10.547-5.761Z" transform="translate(1333.815 3064.677)" fill="#efefef"/>
    <path id="Path_560" data-name="Path 560" d="M90.3,205.1l8.689,15.874,15.908,8.689-15.908,8.722L90.3,254.26l-8.689-15.874L65.7,229.663l15.908-8.689Z" transform="translate(1642.378 2816.384)" fill="#f1cc94"/>
    <path id="Path_558" data-name="Path 558" d="M73.771,205.1l2.851,5.209,5.22,2.851-5.22,2.862-2.851,5.209-2.851-5.209L65.7,213.16l5.22-2.851Z" transform="translate(1102.455 3022.808)" fill="#f1cc94"/>
    <path id="Path_569" data-name="Path 569" d="M73.771,205.1l2.851,5.209,5.22,2.851-5.22,2.862-2.851,5.209-2.851-5.209L65.7,213.16l5.22-2.851Z" transform="translate(1517.274 3369.424)" fill="#f1cc94"/>
    <path id="Path_564" data-name="Path 564" d="M71.052,205.1l1.89,3.454,3.461,1.89-3.461,1.9-1.89,3.454-1.89-3.454-3.461-1.9,3.461-1.89Z" transform="translate(1772.709 3201.933)" fill="#f1cc94"/>
    <path id="Path_566" data-name="Path 566" d="M71.052,205.1l1.89,3.454,3.461,1.89-3.461,1.9-1.89,3.454-1.89-3.454-3.461-1.9,3.461-1.89Z" transform="translate(1810.245 2937.822)" fill="#efefef"/>
    <path id="Path_571" data-name="Path 571" d="M71.052,205.1l1.89,3.454,3.461,1.89-3.461,1.9-1.89,3.454-1.89-3.454-3.461-1.9,3.461-1.89Z" transform="translate(1377.728 3091.923)" fill="#efefef"/>
    <path id="Path_573" data-name="Path 573" d="M71.052,205.1l1.89,3.454,3.461,1.89-3.461,1.9-1.89,3.454-1.89-3.454-3.461-1.9,3.461-1.89Z" transform="translate(1297.906 3217.906)" fill="#efefef"/>
    <path id="Path_574" data-name="Path 574" d="M71.052,205.1l1.89,3.454,3.461,1.89-3.461,1.9-1.89,3.454-1.89-3.454-3.461-1.9,3.461-1.89Z" transform="translate(1149.863 3142.78)" fill="#efefef"/>
    <path id="Path_576" data-name="Path 576" d="M71.052,205.1l1.89,3.454,3.461,1.89-3.461,1.9-1.89,3.454-1.89-3.454-3.461-1.9,3.461-1.89Z" transform="translate(1308.754 3358.73)" fill="#efefef"/>
    <path id="Path_575" data-name="Path 575" d="M71.052,205.1l1.89,3.454,3.461,1.89-3.461,1.9-1.89,3.454-1.89-3.454-3.461-1.9,3.461-1.89Z" transform="translate(1197.534 2884.466)" fill="#efefef"/>
    <path id="Path_559" data-name="Path 559" d="M73.771,205.1l2.851,5.209,5.22,2.851-5.22,2.862-2.851,5.209-2.851-5.209L65.7,213.16l5.22-2.851Z" transform="translate(1612.421 2876.723)" fill="#f1cc94"/>
    <text id="PHP" transform="translate(1226.265 3493.759)" fill="#f1cc94" font-size="34" font-family="Poppins-Regular, Poppins" letter-spacing="-0.06em"><tspan x="0" y="0">PHP</tspan></text>
    <text id="PS" transform="translate(1405.785 3359.49)" fill="#2a2a2a" font-size="23" font-family="Poppins-Regular, Poppins" letter-spacing="-0.06em"><tspan x="0" y="0">PS</tspan></text>
    <text id="CSS" transform="translate(1844.694 3209.788)" fill="#101010" font-size="34" font-family="Poppins-Regular, Poppins" letter-spacing="-0.06em"><tspan x="0" y="0">CSS</tspan></text>
    <text id="XD" transform="translate(1561.896 2997.75)" fill="#f1cc94" font-size="36" font-family="Poppins-Regular, Poppins" letter-spacing="-0.06em"><tspan x="0" y="0">XD</tspan></text>
    <text id="Ai" transform="translate(1815.115 3479.119)" fill="#f1cc94" font-size="34" font-family="Poppins-Regular, Poppins" letter-spacing="-0.06em"><tspan x="0" y="0">Ai</tspan></text>
  </g>
</svg>
