<svg id="file" xmlns="http://www.w3.org/2000/svg" width="10.683" height="24" viewBox="0 0 10.683 24">
  <g id="Layer_1" data-name="Layer 1" transform="translate(0)">
    <path id="Path_679" data-name="Path 679" d="M4.68,24a2.632,2.632,0,0,0-.646-.159A5.3,5.3,0,0,1,.026,18.961Q0,18.586,0,18.21,0,11.217,0,4.22A4.085,4.085,0,0,1,1.382.992,3.931,3.931,0,0,1,3.414.051C3.463.044,3.528.07,3.556,0h.891a1.648,1.648,0,0,0,.465.109,3.993,3.993,0,0,1,3.1,3.958c.006,1.843,0,3.689,0,5.53v6.351a2.667,2.667,0,0,1-5.329.2c-.008-.1-.01-.2-.01-.3q0-5.121,0-10.241c0-.2.032-.278.25-.262a8.728,8.728,0,0,0,.913,0c.148-.005.2.048.181.188a1.693,1.693,0,0,0,0,.188q0,5.074,0,10.147a1.354,1.354,0,0,0,.976,1.426,1.327,1.327,0,0,0,1.671-1.125,2.52,2.52,0,0,0,.016-.257q0-5.917,0-11.834a2.663,2.663,0,0,0-5.322-.2v.07c0,5-.011,10,.013,15A3.949,3.949,0,0,0,4.848,22.64a3.989,3.989,0,0,0,4.278-2.665,4.191,4.191,0,0,0,.213-1.428q0-6.456-.006-12.912c0-.228.043-.319.29-.3a6.792,6.792,0,0,0,.867,0c.159-.007.193.052.193.2-.006.953,0,1.906,0,2.859V18.544a5.274,5.274,0,0,1-2.28,4.49,5.154,5.154,0,0,1-2.305.913c-.049.008-.113-.016-.144.05Z" transform="translate(0)" fill="#101010"/>
  </g>
</svg>
