<svg xmlns="http://www.w3.org/2000/svg" width="17.111" height="24" viewBox="0 0 17.111 24">
  <g id="Subtraction_2" data-name="Subtraction 2" fill="#ffffff">
    <path d="M 12.00351238250732 23.25 C 8.997482299804688 23.25 6.171422958374023 22.07979011535645 4.045942783355713 19.95491981506348 C 1.920522689819336 17.83012008666992 0.7500027418136597 15.00500965118408 0.7500027418136597 12 C 0.7500027418136597 8.994979858398438 1.920522689819336 6.169869899749756 4.045942783355713 4.045080184936523 C 6.171422958374023 1.920210003852844 8.997482299804688 0.75 12.00351238250732 0.75 C 13.15458869934082 0.75 14.27564334869385 0.9194698929786682 15.35218238830566 1.255188822746277 C 11.73085498809814 3.577645540237427 9.465703010559082 7.636752128601074 9.465703010559082 12 C 9.465703010559082 16.36324882507324 11.73086071014404 20.42234992980957 15.35218811035156 22.74480438232422 C 14.27564811706543 23.08052635192871 13.15458869934082 23.25 12.00351238250732 23.25 Z" stroke="none"/>
    <path d="M 12.00351238250732 22.5 C 12.54070949554443 22.5 13.0708589553833 22.46048355102539 13.59226608276367 22.38182640075684 C 10.55701541900635 19.84867858886719 8.715703010559082 16.04799652099609 8.715703010559082 12 C 8.715703010559082 7.951996326446533 10.5570068359375 4.151319026947021 13.59225749969482 1.618171215057373 C 13.07084941864014 1.539514780044556 12.5407133102417 1.5 12.00351238250732 1.5 C 9.197772979736328 1.5 6.560032844543457 2.592230081558228 4.576192855834961 4.57548999786377 C 2.592482805252075 6.558609962463379 1.50000274181366 9.19536018371582 1.50000274181366 12 C 1.50000274181366 14.80463027954102 2.592482805252075 17.44137954711914 4.576202869415283 19.42452049255371 C 6.560032844543457 21.40777015686035 9.197772979736328 22.5 12.00351238250732 22.5 M 12.00351238250732 24 C 8.797192573547363 24 5.782822608947754 22.75180053710938 3.515692710876465 20.48533058166504 C 1.248562693595886 18.2188606262207 2.727050741668791e-06 15.2053804397583 2.727050741668791e-06 12 C 2.727050741668791e-06 8.794619560241699 1.248562693595886 5.781129837036133 3.515692710876465 3.514669895172119 C 5.782822608947754 1.248200058937073 8.797192573547363 -1.77635683940025e-15 12.00351238250732 -1.77635683940025e-15 C 13.78938293457031 -1.77635683940025e-15 15.50794315338135 0.3827199935913086 17.11146354675293 1.137529969215393 C 12.92245292663574 3.109390020370483 10.21570301055908 7.372799873352051 10.21570301055908 12 C 10.21570301055908 16.62682914733887 12.92245292663574 20.89060020446777 17.11146354675293 22.86245918273926 C 15.50727272033691 23.61758995056152 13.78871250152588 24 12.00351238250732 24 Z" stroke="none" fill="#ffffff"/>
  </g>
</svg>
