<svg xmlns="http://www.w3.org/2000/svg" width="17.042" height="24" viewBox="0 0 17.042 24">
  <path id="cib-figma" d="M13.821,11.991c0-5.321,8.521-5.321,8.521,0S13.821,17.311,13.821,11.991ZM5.3,20.009a4.129,4.129,0,0,1,4.221-3.972h4.3v3.972c0,5.321-8.521,5.321-8.521,0ZM13.821,0V8.019h4.221a4.016,4.016,0,1,0,0-8.019ZM5.3,3.972A4.129,4.129,0,0,0,9.521,7.944h4.3V0H9.6A4.15,4.15,0,0,0,5.3,3.972Zm0,8.019a4.129,4.129,0,0,0,4.221,3.972h4.3V8.019H9.6a4.15,4.15,0,0,0-4.3,3.972Z" transform="translate(-5.3)" fill="#f1cc94"/>
</svg>
