<svg xmlns="http://www.w3.org/2000/svg" width="769.018" height="200" viewBox="0 0 769.018 200">
  <g id="Group_11" data-name="Group 11" transform="translate(19.772)">
    <text id="GANDOM" transform="translate(107.247 162)" fill="#f1cc94" font-size="150" font-family="SegoeUI-Light, Segoe UI" font-weight="300"><tspan x="0" y="0">GANDOM</tspan></text>
    <g id="Layer_2" data-name="Layer 2" transform="translate(-240.717 33.774)">
      <g id="Layer_1" data-name="Layer 1" transform="translate(220.945 -0.57)">
        <path id="Path_280" data-name="Path 280" d="M258.676,68.422a12.394,12.394,0,0,0,1.915,6.108,15.291,15.291,0,0,0,4.024,4.024c.2.145.95.62,2.414,1.61,2.76,1.763,3.106,1.948,3.863,2.511a21.024,21.024,0,0,1,3.018,2.769V95.826a14.253,14.253,0,0,0-2.809-8.281c-1.61-2.052-3.477-3.163-6.744-5.078a49.947,49.947,0,0,0-5.762-2.889c.089,4.442.089,6.664.048,7.863a6.957,6.957,0,0,0,0,.716,13.287,13.287,0,0,0,4.024,8.169,12.762,12.762,0,0,0,1.03.942A42.018,42.018,0,0,0,267.851,100a37.078,37.078,0,0,1,3.2,2.229c1.006.8,1.883,1.771,2.881,2.559a10,10,0,0,0,0-1.553V71.979c0-.2-.113-.869,0-1.022l1.61-2.278a18.293,18.293,0,0,0,2.076-2.64,14.847,14.847,0,0,0,2.414-5.634c.539-3.219-.652-5.956-2.012-9.038a28.487,28.487,0,0,0-2.318-4.209,9.38,9.38,0,0,1,.909-1.61l1.119-1.907c.966,1.771,1.915,3.541,2.849,5.328a40.747,40.747,0,0,1,2.543,5.271,15.114,15.114,0,0,1,.7,6.929,53.764,53.764,0,0,1,4.933-2.825c1.36-.676,2.664-1.255,3.911-1.754v2.744c0,.427.121.716-.282.917l-1.231.6q-2.414,1.223-4.829,2.583c-3.123,1.795-6.068,3.919-7.67,7.243a9.789,9.789,0,0,0-.652,1.754,10.748,10.748,0,0,0-.282,1.4l-.048.467c-.081.99,0,25.021,0,30.325,0-.161.394-.41.507-.507.249-.209.491-.427.724-.644.483-.443.95-.885,1.441-1.312,2-1.714,4.346-2.865,6.487-4.354l.1-.072c3-2.117,5.223-5.046,5.577-8.8.137-1.513.113-3.066.161-4.587l.072-2.366.04-1.215a6.542,6.542,0,0,1,.04-1.151c-2.068.869-3.742,1.714-4.941,2.366a29.285,29.285,0,0,0-6.285,4.273,15.766,15.766,0,0,0-1.722,1.883l-.153.2c-.394.539-1.046,1.465-2.044,3.018q-.048-3.066-.1-6.133c.531-.475,1.376-1.207,2.463-2.052,4.362-3.412,6.479-3.952,8.523-5.851a13.835,13.835,0,0,0,4.024-7.871V43.152h3.847V65.509a32.125,32.125,0,0,1-.426,5.5,31.3,31.3,0,0,1-.909,3.646l.95-.612h.475V87.279a16.9,16.9,0,0,1-3.565,9.77c-.354.459-.74.9-1.143,1.328a18.865,18.865,0,0,1-3.324,2.768c-1.69,1.111-3.557,1.94-5.183,3.155a16.9,16.9,0,0,0-2.7,2.559,21.018,21.018,0,0,0-2.1,2.8,4.829,4.829,0,0,0-.724,2.245,3.547,3.547,0,0,0,0,.515v11.42h-3.8V112.413a4.755,4.755,0,0,0,0-.483,7.242,7.242,0,0,0-1.706-3.791,16.682,16.682,0,0,0-3.493-3.364c-1.722-1.28-3.589-2.342-5.368-3.533a19.748,19.748,0,0,1-7.243-7.823,12.485,12.485,0,0,1-.515-1.28,14.55,14.55,0,0,1-.757-4.829c-.089-5.489-.048-10.157,0-13.3h.724l1.038.507a12.265,12.265,0,0,1-1.706-4.676,8.627,8.627,0,0,1-.089-.917c-.161-2.9-.048-19.629,0-25.754h3.823V56.222l8.772,4.764a4.626,4.626,0,0,1-.056-1.078,9.654,9.654,0,0,1,.04-1.183,17.194,17.194,0,0,1,.386-2.487,22.683,22.683,0,0,1,1.666-4.7,44.528,44.528,0,0,1,2.994-5.247l.8-1.264a2.623,2.623,0,0,0,.636-1.207V29.8h3.807V43.731c-.435.8-1.119,2-1.988,3.509-1.441,2.527-1.779,3.05-2.414,4.265a17.816,17.816,0,0,0-1.8,4.418,12.537,12.537,0,0,0,0,5.183,15.468,15.468,0,0,0,2.125,4.829,26.218,26.218,0,0,0,1.9,2.809q-.8,4.491-1.658,8.99a13.456,13.456,0,0,0-1.127-6.728A14.341,14.341,0,0,0,269,66.177c-.483-.427-1.376-1.167-5.384-3.428-2.052-1.151-3.775-2.06-4.982-2.68Z" transform="translate(-227.551 -5.358)" fill="#f1cc94"/>
        <path id="Path_281" data-name="Path 281" d="M317.114,84h0V47.436h0a48.085,48.085,0,1,0-96.169.161h0V84.658h0a48.085,48.085,0,1,0,96.169-.515ZM269.028,129.67A45.592,45.592,0,0,1,223.492,84.6h0V49.3h0V47.581h0a45.536,45.536,0,0,1,91.071-.113V84.489h0a45.584,45.584,0,0,1-45.536,45.181Z" transform="translate(-220.945 0.57)" fill="#f1cc94"/>
      </g>
    </g>
  </g>
</svg>
