<svg xmlns="http://www.w3.org/2000/svg" width="24" height="24" viewBox="0 0 24 24">
  <g id="illusterator" transform="translate(-1149 -1819)">
    <rect id="Rectangle_315" data-name="Rectangle 315" width="24" height="24" rx="4" transform="translate(1149 1819)" fill="#f1cc94"/>
    <g id="cib-adobe-illustrator" transform="translate(1118.186 1780.33)">
      <g id="Group_150" data-name="Group 150" transform="translate(31 39.5)">
        <path id="Path_686" data-name="Path 686" d="M39.325,53.089l-.795,3.075c-.016.088-.048.1-.144.1H36.92c-.1,0-.117-.033-.1-.148l2.837-10.2a3.171,3.171,0,0,0,.1-.859c0-.071.037-.1.085-.1h2.1c.069,0,.1.016.117.1l3.184,11.073c.021.082,0,.131-.08.131H43.507c-.085,0-.133-.022-.149-.088l-.827-3.091-3.205.005Zm2.789-1.669c-.283-1.132-.939-3.616-1.189-4.82H40.9c-.213,1.2-.741,3.228-1.152,4.82Zm4.5-5.7a1.024,1.024,0,1,1,2.048,0,.972.972,0,0,1-1.045,1.05.946.946,0,0,1-1-1.05Zm.112,2.331c0-.082.032-.115.112-.115h1.568c.091,0,.123.033.123.12v8.1c0,.082-.016.115-.117.115H46.867c-.1,0-.133-.049-.133-.131V48.051Z" transform="translate(-31 -39.5)" fill="#101010"/>
      </g>
    </g>
  </g>
</svg>
