<svg xmlns="http://www.w3.org/2000/svg" width="24" height="24" viewBox="0 0 24 24">
  <g id="photoshop" transform="translate(0.144 -0.182)">
    <rect id="Rectangle_314" data-name="Rectangle 314" width="24" height="24" rx="4" transform="translate(-0.144 0.182)" fill="#f1cc94"/>
    <g id="cib-adobe-photoshop" transform="translate(6.907 5.981)">
      <g id="Group_148" data-name="Group 148" transform="translate(0 1)">
        <path id="Path_685" data-name="Path 685" d="M36.8,45.107c0-.067.13-.113.21-.113.6-.031,1.489-.051,2.414-.051,2.6,0,3.608,1.461,3.608,3.332,0,2.445-1.729,3.491-3.843,3.491-.36,0-.48-.021-.73-.021v3.7c0,.077-.03.113-.1.113H36.908c-.075,0-.1-.031-.1-.108Zm1.659,5.105c.215.015.39.015.76.015,1.094,0,2.129-.4,2.129-1.917,0-1.22-.74-1.84-1.989-1.84-.37,0-.725.015-.895.031v3.711Zm8.065-1.143c-.745,0-.989.384-.989.7,0,.349.17.584,1.159,1.112,1.469.733,1.934,1.425,1.934,2.46a4.426,4.426,0,0,1-.04.479c-.054,1.125-1.167,1.884-2.648,1.884a3.951,3.951,0,0,1-1.919-.415c-.06-.031-.075-.077-.075-.159v-1.41c0-.092.045-.128.1-.077a3.357,3.357,0,0,0,1.884.569c.745,0,1.049-.318,1.049-.748,0-.349-.215-.651-1.154-1.158-1.334-.651-1.889-1.317-1.889-2.43a2.32,2.32,0,0,1,2.579-2.266,4.38,4.38,0,0,1,1.684.267.216.216,0,0,1,.09.19v1.317c0,.077-.05.128-.14.092a3.3,3.3,0,0,0-1.629-.4Z" transform="translate(-36.803 -44.943)" fill="#101010"/>
      </g>
    </g>
  </g>
</svg>
