<svg xmlns="http://www.w3.org/2000/svg" width="24.366" height="24.366" viewBox="0 0 24.366 24.366">
  <g id="wattsapp" transform="translate(-0.732 -0.728)">
    <circle id="Ellipse_54" data-name="Ellipse 54" cx="11.976" cy="11.976" r="11.976" transform="matrix(1, 0.017, -0.017, 1, 1.15, 0.728)" fill="#f1cc94"/>
    <path id="Path_675" data-name="Path 675" d="M8.13,23.076l1.148-4.265a7.879,7.879,0,1,1,3.141,3.1Zm4.506-2.745.271.163a6.445,6.445,0,1,0-2.195-2.179l.163.271-.636,2.4Z" transform="translate(-2.7 -2.374)" fill="#101010"/>
    <path id="Path_676" data-name="Path 676" d="M20.319,17.334a1.318,1.318,0,0,0-1.125-.256c-.295.124-.481.582-.667.814a.279.279,0,0,1-.364.078,5.087,5.087,0,0,1-2.551-2.179.3.3,0,0,1,.039-.427,1.861,1.861,0,0,0,.465-.776,1.706,1.706,0,0,0-.209-.9,2.1,2.1,0,0,0-.659-.993.9.9,0,0,0-.977.147,1.962,1.962,0,0,0-.69,1.551,2.171,2.171,0,0,0,.062.5,3.994,3.994,0,0,0,.481,1.125,8.531,8.531,0,0,0,.5.776,7.685,7.685,0,0,0,2.171,2.016,6.336,6.336,0,0,0,1.349.644,2.993,2.993,0,0,0,1.551.248,1.908,1.908,0,0,0,1.435-1.062.931.931,0,0,0,.062-.543C21.133,17.737,20.621,17.52,20.319,17.334Z" transform="translate(-3.924 -3.61)" fill="#101010" fill-rule="evenodd"/>
  </g>
</svg>
